<?xml version="1.0" encoding="UTF-8" standalone="no"?>
<!DOCTYPE svg PUBLIC "-//W3C//DTD SVG 1.1//EN"
 "http://www.w3.org/Graphics/SVG/1.1/DTD/svg11.dtd">
<!-- Generated by graphviz version 5.0.0 (20220707.1540)
 -->
<!-- Title: dependencies Pages: 1 -->
<svg width="501pt" height="174pt"
 viewBox="0.00 0.00 501.00 173.80" xmlns="http://www.w3.org/2000/svg" xmlns:xlink="http://www.w3.org/1999/xlink">
<g id="graph0" class="graph" transform="scale(1 1) rotate(0) translate(4 169.8)">
<title>dependencies</title>
<polygon fill="white" stroke="transparent" points="-4,4 -4,-169.8 497,-169.8 497,4 -4,4"/>
<text text-anchor="middle" x="246.5" y="-8.2" font-family="sans-serif" font-size="14.00">dependencies</text>
<g id="clust1" class="cluster">
<title>cluster_StudentsModule</title>
<polygon fill="none" stroke="black" stroke-dasharray="1,5" points="8,-32.8 8,-157.8 485,-157.8 485,-32.8 8,-32.8"/>
</g>
<g id="clust2" class="cluster">
<title>cluster_StudentsModule_declarations</title>
<polygon fill="none" stroke="black" points="309,-40.8 309,-92.8 477,-92.8 477,-40.8 309,-40.8"/>
</g>
<g id="clust4" class="cluster">
<title>cluster_StudentsModule_imports</title>
<polygon fill="none" stroke="black" points="16,-40.8 16,-92.8 301,-92.8 301,-40.8 16,-40.8"/>
</g>
<!-- ListStudentsComponent -->
<g id="node1" class="node">
<title>ListStudentsComponent</title>
<polygon fill="#ffffb3" stroke="black" points="468.84,-84.8 317.16,-84.8 317.16,-48.8 468.84,-48.8 468.84,-84.8"/>
<text text-anchor="middle" x="393" y="-62.6" font-family="Times,serif" font-size="14.00">ListStudentsComponent</text>
</g>
<!-- StudentsModule -->
<g id="node2" class="node">
<title>StudentsModule</title>
<polygon fill="#8dd3c7" stroke="black" points="297.78,-149.8 294.78,-153.8 273.78,-153.8 270.78,-149.8 190.22,-149.8 190.22,-113.8 297.78,-113.8 297.78,-149.8"/>
<text text-anchor="middle" x="244" y="-127.6" font-family="Times,serif" font-size="14.00">StudentsModule</text>
</g>
<!-- ListStudentsComponent&#45;&gt;StudentsModule -->
<g id="edge1" class="edge">
<title>ListStudentsComponent&#45;&gt;StudentsModule</title>
<path fill="none" stroke="black" d="M393,-84.91C393,-104.14 393,-131.8 393,-131.8 393,-131.8 307.79,-131.8 307.79,-131.8"/>
<polygon fill="black" stroke="black" points="307.79,-128.3 297.79,-131.8 307.79,-135.3 307.79,-128.3"/>
</g>
<!-- SharedModule -->
<g id="node3" class="node">
<title>SharedModule</title>
<polygon fill="#8dd3c7" stroke="black" points="293.43,-84.8 290.43,-88.8 269.43,-88.8 266.43,-84.8 194.57,-84.8 194.57,-48.8 293.43,-48.8 293.43,-84.8"/>
<text text-anchor="middle" x="244" y="-62.6" font-family="Times,serif" font-size="14.00">SharedModule</text>
</g>
<!-- SharedModule&#45;&gt;StudentsModule -->
<g id="edge2" class="edge">
<title>SharedModule&#45;&gt;StudentsModule</title>
<path fill="none" stroke="black" d="M244,-84.91C244,-84.91 244,-103.79 244,-103.79"/>
<polygon fill="black" stroke="black" points="240.5,-103.79 244,-113.79 247.5,-103.79 240.5,-103.79"/>
</g>
<!-- StudentsRoutingModule -->
<g id="node4" class="node">
<title>StudentsRoutingModule</title>
<polygon fill="#8dd3c7" stroke="black" points="176.4,-84.8 173.4,-88.8 152.4,-88.8 149.4,-84.8 23.6,-84.8 23.6,-48.8 176.4,-48.8 176.4,-84.8"/>
<text text-anchor="middle" x="100" y="-62.6" font-family="Times,serif" font-size="14.00">StudentsRoutingModule</text>
</g>
<!-- StudentsRoutingModule&#45;&gt;StudentsModule -->
<g id="edge3" class="edge">
<title>StudentsRoutingModule&#45;&gt;StudentsModule</title>
<path fill="none" stroke="black" d="M100,-84.91C100,-104.14 100,-131.8 100,-131.8 100,-131.8 179.97,-131.8 179.97,-131.8"/>
<polygon fill="black" stroke="black" points="179.97,-135.3 189.97,-131.8 179.97,-128.3 179.97,-135.3"/>
</g>
</g>
</svg>
