<?xml version="1.0" encoding="UTF-8" standalone="no"?>
<!DOCTYPE svg PUBLIC "-//W3C//DTD SVG 1.1//EN"
 "http://www.w3.org/Graphics/SVG/1.1/DTD/svg11.dtd">
<!-- Generated by graphviz version 5.0.0 (20220707.1540)
 -->
<!-- Title: dependencies Pages: 1 -->
<svg width="214pt" height="247pt"
 viewBox="0.00 0.00 214.00 246.80" xmlns="http://www.w3.org/2000/svg" xmlns:xlink="http://www.w3.org/1999/xlink">
<g id="graph0" class="graph" transform="scale(1 1) rotate(0) translate(4 242.8)">
<title>dependencies</title>
<polygon fill="white" stroke="transparent" points="-4,4 -4,-242.8 210,-242.8 210,4 -4,4"/>
<text text-anchor="middle" x="103" y="-8.2" font-family="sans-serif" font-size="14.00">dependencies</text>
<g id="clust1" class="cluster">
<title>cluster_SharedModule</title>
<polygon fill="none" stroke="black" stroke-dasharray="1,5" points="8,-32.8 8,-230.8 198,-230.8 198,-32.8 8,-32.8"/>
</g>
<g id="clust5" class="cluster">
<title>cluster_SharedModule_exports</title>
<polygon fill="none" stroke="black" points="16,-170.8 16,-222.8 190,-222.8 190,-170.8 16,-170.8"/>
</g>
<g id="clust2" class="cluster">
<title>cluster_SharedModule_declarations</title>
<polygon fill="none" stroke="black" points="18,-40.8 18,-92.8 188,-92.8 188,-40.8 18,-40.8"/>
</g>
<!-- PureLoadingComponent -->
<g id="node1" class="node">
<title>PureLoadingComponent</title>
<polygon fill="#ffffb3" stroke="black" points="179.65,-84.8 26.35,-84.8 26.35,-48.8 179.65,-48.8 179.65,-84.8"/>
<text text-anchor="middle" x="103" y="-62.6" font-family="Times,serif" font-size="14.00">PureLoadingComponent</text>
</g>
<!-- SharedModule -->
<g id="node2" class="node">
<title>SharedModule</title>
<polygon fill="#8dd3c7" stroke="black" points="152.43,-149.8 149.43,-153.8 128.43,-153.8 125.43,-149.8 53.57,-149.8 53.57,-113.8 152.43,-113.8 152.43,-149.8"/>
<text text-anchor="middle" x="103" y="-127.6" font-family="Times,serif" font-size="14.00">SharedModule</text>
</g>
<!-- PureLoadingComponent&#45;&gt;SharedModule -->
<g id="edge1" class="edge">
<title>PureLoadingComponent&#45;&gt;SharedModule</title>
<path fill="none" stroke="black" d="M103,-84.91C103,-84.91 103,-103.79 103,-103.79"/>
<polygon fill="black" stroke="black" points="99.5,-103.79 103,-113.79 106.5,-103.79 99.5,-103.79"/>
</g>
<!-- PureLoadingComponent  -->
<g id="node3" class="node">
<title>PureLoadingComponent </title>
<polygon fill="#fb8072" stroke="black" points="181.65,-214.8 24.35,-214.8 24.35,-178.8 181.65,-178.8 181.65,-214.8"/>
<text text-anchor="middle" x="103" y="-192.6" font-family="Times,serif" font-size="14.00">PureLoadingComponent </text>
</g>
<!-- SharedModule&#45;&gt;PureLoadingComponent  -->
<g id="edge2" class="edge">
<title>SharedModule&#45;&gt;PureLoadingComponent </title>
<path fill="none" stroke="black" stroke-dasharray="5,2" d="M103,-149.91C103,-149.91 103,-168.79 103,-168.79"/>
<polygon fill="black" stroke="black" points="99.5,-168.79 103,-178.79 106.5,-168.79 99.5,-168.79"/>
</g>
</g>
</svg>
