<?xml version="1.0" encoding="UTF-8" standalone="no"?>
<!DOCTYPE svg PUBLIC "-//W3C//DTD SVG 1.1//EN"
 "http://www.w3.org/Graphics/SVG/1.1/DTD/svg11.dtd">
<!-- Generated by graphviz version 5.0.0 (20220707.1540)
 -->
<!-- Title: dependencies Pages: 1 -->
<svg width="752pt" height="247pt"
 viewBox="0.00 0.00 752.00 246.80" xmlns="http://www.w3.org/2000/svg" xmlns:xlink="http://www.w3.org/1999/xlink">
<g id="graph0" class="graph" transform="scale(1 1) rotate(0) translate(4 242.8)">
<title>dependencies</title>
<polygon fill="white" stroke="transparent" points="-4,4 -4,-242.8 748,-242.8 748,4 -4,4"/>
<text text-anchor="middle" x="372" y="-8.2" font-family="sans-serif" font-size="14.00">dependencies</text>
<g id="clust1" class="cluster">
<title>cluster_WelcomeModule</title>
<polygon fill="none" stroke="black" stroke-dasharray="1,5" points="8,-32.8 8,-230.8 736,-230.8 736,-32.8 8,-32.8"/>
</g>
<g id="clust5" class="cluster">
<title>cluster_WelcomeModule_exports</title>
<polygon fill="none" stroke="black" points="330,-170.8 330,-222.8 484,-222.8 484,-170.8 330,-170.8"/>
</g>
<g id="clust4" class="cluster">
<title>cluster_WelcomeModule_imports</title>
<polygon fill="none" stroke="black" points="174,-40.8 174,-92.8 728,-92.8 728,-40.8 174,-40.8"/>
</g>
<g id="clust2" class="cluster">
<title>cluster_WelcomeModule_declarations</title>
<polygon fill="none" stroke="black" points="16,-40.8 16,-92.8 166,-92.8 166,-40.8 16,-40.8"/>
</g>
<!-- WelcomeComponent -->
<g id="node1" class="node">
<title>WelcomeComponent</title>
<polygon fill="#ffffb3" stroke="black" points="158.47,-84.8 23.53,-84.8 23.53,-48.8 158.47,-48.8 158.47,-84.8"/>
<text text-anchor="middle" x="91" y="-62.6" font-family="Times,serif" font-size="14.00">WelcomeComponent</text>
</g>
<!-- WelcomeModule -->
<g id="node2" class="node">
<title>WelcomeModule</title>
<polygon fill="#8dd3c7" stroke="black" points="463.69,-149.8 460.69,-153.8 439.69,-153.8 436.69,-149.8 350.31,-149.8 350.31,-113.8 463.69,-113.8 463.69,-149.8"/>
<text text-anchor="middle" x="407" y="-127.6" font-family="Times,serif" font-size="14.00">WelcomeModule</text>
</g>
<!-- WelcomeComponent&#45;&gt;WelcomeModule -->
<g id="edge1" class="edge">
<title>WelcomeComponent&#45;&gt;WelcomeModule</title>
<path fill="none" stroke="black" d="M91,-84.91C91,-104.14 91,-131.8 91,-131.8 91,-131.8 340.14,-131.8 340.14,-131.8"/>
<polygon fill="black" stroke="black" points="340.14,-135.3 350.14,-131.8 340.14,-128.3 340.14,-135.3"/>
</g>
<!-- WelcomeComponent  -->
<g id="node7" class="node">
<title>WelcomeComponent </title>
<polygon fill="#fb8072" stroke="black" points="476.47,-214.8 337.53,-214.8 337.53,-178.8 476.47,-178.8 476.47,-214.8"/>
<text text-anchor="middle" x="407" y="-192.6" font-family="Times,serif" font-size="14.00">WelcomeComponent </text>
</g>
<!-- WelcomeModule&#45;&gt;WelcomeComponent  -->
<g id="edge6" class="edge">
<title>WelcomeModule&#45;&gt;WelcomeComponent </title>
<path fill="none" stroke="black" stroke-dasharray="5,2" d="M407,-149.91C407,-149.91 407,-168.79 407,-168.79"/>
<polygon fill="black" stroke="black" points="403.5,-168.79 407,-178.79 410.5,-168.79 403.5,-168.79"/>
</g>
<!-- FormStatusModule -->
<g id="node3" class="node">
<title>FormStatusModule</title>
<polygon fill="#8dd3c7" stroke="black" points="720.12,-84.8 717.12,-88.8 696.12,-88.8 693.12,-84.8 595.88,-84.8 595.88,-48.8 720.12,-48.8 720.12,-84.8"/>
<text text-anchor="middle" x="658" y="-62.6" font-family="Times,serif" font-size="14.00">FormStatusModule</text>
</g>
<!-- FormStatusModule&#45;&gt;WelcomeModule -->
<g id="edge2" class="edge">
<title>FormStatusModule&#45;&gt;WelcomeModule</title>
<path fill="none" stroke="black" d="M658,-84.91C658,-104.14 658,-131.8 658,-131.8 658,-131.8 473.64,-131.8 473.64,-131.8"/>
<polygon fill="black" stroke="black" points="473.64,-128.3 463.64,-131.8 473.64,-135.3 473.64,-128.3"/>
</g>
<!-- QrCodeModule -->
<g id="node4" class="node">
<title>QrCodeModule</title>
<polygon fill="#8dd3c7" stroke="black" points="577.88,-84.8 574.88,-88.8 553.88,-88.8 550.88,-84.8 474.12,-84.8 474.12,-48.8 577.88,-48.8 577.88,-84.8"/>
<text text-anchor="middle" x="526" y="-62.6" font-family="Times,serif" font-size="14.00">QrCodeModule</text>
</g>
<!-- QrCodeModule&#45;&gt;WelcomeModule -->
<g id="edge3" class="edge">
<title>QrCodeModule&#45;&gt;WelcomeModule</title>
<path fill="none" stroke="black" d="M473.92,-66.8C465.73,-66.8 459.9,-66.8 459.9,-66.8 459.9,-66.8 459.9,-103.69 459.9,-103.69"/>
<polygon fill="black" stroke="black" points="456.4,-103.69 459.9,-113.69 463.4,-103.69 456.4,-103.69"/>
</g>
<!-- SharedModule -->
<g id="node5" class="node">
<title>SharedModule</title>
<polygon fill="#8dd3c7" stroke="black" points="456.43,-84.8 453.43,-88.8 432.43,-88.8 429.43,-84.8 357.57,-84.8 357.57,-48.8 456.43,-48.8 456.43,-84.8"/>
<text text-anchor="middle" x="407" y="-62.6" font-family="Times,serif" font-size="14.00">SharedModule</text>
</g>
<!-- SharedModule&#45;&gt;WelcomeModule -->
<g id="edge4" class="edge">
<title>SharedModule&#45;&gt;WelcomeModule</title>
<path fill="none" stroke="black" d="M407,-84.91C407,-84.91 407,-103.79 407,-103.79"/>
<polygon fill="black" stroke="black" points="403.5,-103.79 407,-113.79 410.5,-103.79 403.5,-103.79"/>
</g>
<!-- WelcomeRoutingModule -->
<g id="node6" class="node">
<title>WelcomeRoutingModule</title>
<polygon fill="#8dd3c7" stroke="black" points="340.3,-84.8 337.3,-88.8 316.3,-88.8 313.3,-84.8 181.7,-84.8 181.7,-48.8 340.3,-48.8 340.3,-84.8"/>
<text text-anchor="middle" x="261" y="-62.6" font-family="Times,serif" font-size="14.00">WelcomeRoutingModule</text>
</g>
<!-- WelcomeRoutingModule&#45;&gt;WelcomeModule -->
<g id="edge5" class="edge">
<title>WelcomeRoutingModule&#45;&gt;WelcomeModule</title>
<path fill="none" stroke="black" d="M340.36,-66.8C348.64,-66.8 354.1,-66.8 354.1,-66.8 354.1,-66.8 354.1,-103.69 354.1,-103.69"/>
<polygon fill="black" stroke="black" points="350.6,-103.69 354.1,-113.69 357.6,-103.69 350.6,-103.69"/>
</g>
</g>
</svg>
