<?xml version="1.0" encoding="UTF-8" standalone="no"?>
<!DOCTYPE svg PUBLIC "-//W3C//DTD SVG 1.1//EN"
 "http://www.w3.org/Graphics/SVG/1.1/DTD/svg11.dtd">
<!-- Generated by graphviz version 5.0.0 (20220707.1540)
 -->
<!-- Title: dependencies Pages: 1 -->
<svg width="636pt" height="247pt"
 viewBox="0.00 0.00 636.00 246.80" xmlns="http://www.w3.org/2000/svg" xmlns:xlink="http://www.w3.org/1999/xlink">
<g id="graph0" class="graph" transform="scale(1 1) rotate(0) translate(4 242.8)">
<title>dependencies</title>
<polygon fill="white" stroke="transparent" points="-4,4 -4,-242.8 632,-242.8 632,4 -4,4"/>
<text text-anchor="middle" x="314" y="-8.2" font-family="sans-serif" font-size="14.00">dependencies</text>
<g id="clust1" class="cluster">
<title>cluster_WelcomeModule</title>
<polygon fill="none" stroke="black" stroke-dasharray="1,5" points="8,-32.8 8,-230.8 620,-230.8 620,-32.8 8,-32.8"/>
</g>
<g id="clust5" class="cluster">
<title>cluster_WelcomeModule_exports</title>
<polygon fill="none" stroke="black" points="241,-170.8 241,-222.8 395,-222.8 395,-170.8 241,-170.8"/>
</g>
<g id="clust2" class="cluster">
<title>cluster_WelcomeModule_declarations</title>
<polygon fill="none" stroke="black" points="462,-40.8 462,-92.8 612,-92.8 612,-40.8 462,-40.8"/>
</g>
<g id="clust4" class="cluster">
<title>cluster_WelcomeModule_imports</title>
<polygon fill="none" stroke="black" points="16,-40.8 16,-92.8 454,-92.8 454,-40.8 16,-40.8"/>
</g>
<!-- WelcomeComponent -->
<g id="node1" class="node">
<title>WelcomeComponent</title>
<polygon fill="#ffffb3" stroke="black" points="604.47,-84.8 469.53,-84.8 469.53,-48.8 604.47,-48.8 604.47,-84.8"/>
<text text-anchor="middle" x="537" y="-62.6" font-family="Times,serif" font-size="14.00">WelcomeComponent</text>
</g>
<!-- WelcomeModule -->
<g id="node2" class="node">
<title>WelcomeModule</title>
<polygon fill="#8dd3c7" stroke="black" points="374.69,-149.8 371.69,-153.8 350.69,-153.8 347.69,-149.8 261.31,-149.8 261.31,-113.8 374.69,-113.8 374.69,-149.8"/>
<text text-anchor="middle" x="318" y="-127.6" font-family="Times,serif" font-size="14.00">WelcomeModule</text>
</g>
<!-- WelcomeComponent&#45;&gt;WelcomeModule -->
<g id="edge1" class="edge">
<title>WelcomeComponent&#45;&gt;WelcomeModule</title>
<path fill="none" stroke="black" d="M537,-84.91C537,-104.14 537,-131.8 537,-131.8 537,-131.8 384.68,-131.8 384.68,-131.8"/>
<polygon fill="black" stroke="black" points="384.68,-128.3 374.68,-131.8 384.68,-135.3 384.68,-128.3"/>
</g>
<!-- WelcomeComponent  -->
<g id="node6" class="node">
<title>WelcomeComponent </title>
<polygon fill="#fb8072" stroke="black" points="387.47,-214.8 248.53,-214.8 248.53,-178.8 387.47,-178.8 387.47,-214.8"/>
<text text-anchor="middle" x="318" y="-192.6" font-family="Times,serif" font-size="14.00">WelcomeComponent </text>
</g>
<!-- WelcomeModule&#45;&gt;WelcomeComponent  -->
<g id="edge5" class="edge">
<title>WelcomeModule&#45;&gt;WelcomeComponent </title>
<path fill="none" stroke="black" stroke-dasharray="5,2" d="M318,-149.91C318,-149.91 318,-168.79 318,-168.79"/>
<polygon fill="black" stroke="black" points="314.5,-168.79 318,-178.79 321.5,-168.79 314.5,-168.79"/>
</g>
<!-- FormStatusModule -->
<g id="node3" class="node">
<title>FormStatusModule</title>
<polygon fill="#8dd3c7" stroke="black" points="446.12,-84.8 443.12,-88.8 422.12,-88.8 419.12,-84.8 321.88,-84.8 321.88,-48.8 446.12,-48.8 446.12,-84.8"/>
<text text-anchor="middle" x="384" y="-62.6" font-family="Times,serif" font-size="14.00">FormStatusModule</text>
</g>
<!-- FormStatusModule&#45;&gt;WelcomeModule -->
<g id="edge2" class="edge">
<title>FormStatusModule&#45;&gt;WelcomeModule</title>
<path fill="none" stroke="black" d="M348.27,-84.91C348.27,-84.91 348.27,-103.79 348.27,-103.79"/>
<polygon fill="black" stroke="black" points="344.77,-103.79 348.27,-113.79 351.77,-103.79 344.77,-103.79"/>
</g>
<!-- QrCodeModule -->
<g id="node4" class="node">
<title>QrCodeModule</title>
<polygon fill="#8dd3c7" stroke="black" points="303.88,-84.8 300.88,-88.8 279.88,-88.8 276.88,-84.8 200.12,-84.8 200.12,-48.8 303.88,-48.8 303.88,-84.8"/>
<text text-anchor="middle" x="252" y="-62.6" font-family="Times,serif" font-size="14.00">QrCodeModule</text>
</g>
<!-- QrCodeModule&#45;&gt;WelcomeModule -->
<g id="edge3" class="edge">
<title>QrCodeModule&#45;&gt;WelcomeModule</title>
<path fill="none" stroke="black" d="M282.67,-84.91C282.67,-84.91 282.67,-103.79 282.67,-103.79"/>
<polygon fill="black" stroke="black" points="279.17,-103.79 282.67,-113.79 286.17,-103.79 279.17,-103.79"/>
</g>
<!-- WelcomeRoutingModule -->
<g id="node5" class="node">
<title>WelcomeRoutingModule</title>
<polygon fill="#8dd3c7" stroke="black" points="182.3,-84.8 179.3,-88.8 158.3,-88.8 155.3,-84.8 23.7,-84.8 23.7,-48.8 182.3,-48.8 182.3,-84.8"/>
<text text-anchor="middle" x="103" y="-62.6" font-family="Times,serif" font-size="14.00">WelcomeRoutingModule</text>
</g>
<!-- WelcomeRoutingModule&#45;&gt;WelcomeModule -->
<g id="edge4" class="edge">
<title>WelcomeRoutingModule&#45;&gt;WelcomeModule</title>
<path fill="none" stroke="black" d="M103,-84.91C103,-104.14 103,-131.8 103,-131.8 103,-131.8 251.23,-131.8 251.23,-131.8"/>
<polygon fill="black" stroke="black" points="251.23,-135.3 261.23,-131.8 251.23,-128.3 251.23,-135.3"/>
</g>
</g>
</svg>
