<?xml version="1.0" encoding="UTF-8" standalone="no"?>
<!DOCTYPE svg PUBLIC "-//W3C//DTD SVG 1.1//EN"
 "http://www.w3.org/Graphics/SVG/1.1/DTD/svg11.dtd">
<!-- Generated by graphviz version 5.0.0 (20220707.1540)
 -->
<!-- Title: dependencies Pages: 1 -->
<svg width="3369pt" height="397pt"
 viewBox="0.00 0.00 3369.00 396.80" xmlns="http://www.w3.org/2000/svg" xmlns:xlink="http://www.w3.org/1999/xlink">
<g id="graph0" class="graph" transform="scale(1 1) rotate(0) translate(4 392.8)">
<title>dependencies</title>
<polygon fill="white" stroke="transparent" points="-4,4 -4,-392.8 3365,-392.8 3365,4 -4,4"/>
<text text-anchor="middle" x="1680.5" y="-8.2" font-family="sans-serif" font-size="14.00">dependencies</text>
<g id="clust1" class="cluster">
<title>cluster_AppModule</title>
<polygon fill="none" stroke="black" stroke-dasharray="1,5" points="1092,-32.8 1092,-312.8 1808,-312.8 1808,-32.8 1092,-32.8"/>
</g>
<g id="clust2" class="cluster">
<title>cluster_AppModule_declarations</title>
<polygon fill="none" stroke="black" points="1678,-116.8 1678,-168.8 1800,-168.8 1800,-116.8 1678,-116.8"/>
</g>
<g id="clust4" class="cluster">
<title>cluster_AppModule_imports</title>
<polygon fill="none" stroke="black" points="1172,-116.8 1172,-168.8 1670,-168.8 1670,-116.8 1172,-116.8"/>
</g>
<g id="clust6" class="cluster">
<title>cluster_AppModule_bootstrap</title>
<polygon fill="none" stroke="black" points="1182,-252.8 1182,-304.8 1306,-304.8 1306,-252.8 1182,-252.8"/>
</g>
<g id="clust7" class="cluster">
<title>cluster_AppModule_providers</title>
<polygon fill="none" stroke="black" points="1100,-40.8 1100,-92.8 1730,-92.8 1730,-40.8 1100,-40.8"/>
</g>
<g id="clust14" class="cluster">
<title>cluster_CoreModule</title>
<polygon fill="none" stroke="black" stroke-dasharray="1,5" points="1816,-32.8 1816,-100.8 2947,-100.8 2947,-32.8 1816,-32.8"/>
</g>
<g id="clust15" class="cluster">
<title>cluster_CoreModule_declarations</title>
<polygon fill="none" stroke="black" points="2795,-40.8 2795,-92.8 2939,-92.8 2939,-40.8 2795,-40.8"/>
</g>
<g id="clust17" class="cluster">
<title>cluster_CoreModule_imports</title>
<polygon fill="none" stroke="black" points="2633,-40.8 2633,-92.8 2787,-92.8 2787,-40.8 2633,-40.8"/>
</g>
<g id="clust18" class="cluster">
<title>cluster_CoreModule_exports</title>
<polygon fill="none" stroke="black" points="2317,-40.8 2317,-92.8 2625,-92.8 2625,-40.8 2317,-40.8"/>
</g>
<g id="clust20" class="cluster">
<title>cluster_CoreModule_providers</title>
<polygon fill="none" stroke="black" points="1824,-40.8 1824,-92.8 2309,-92.8 2309,-40.8 1824,-40.8"/>
</g>
<g id="clust21" class="cluster">
<title>cluster_DashboardModule</title>
<polygon fill="none" stroke="black" stroke-dasharray="1,5" points="3155,-32.8 3155,-168.8 3353,-168.8 3353,-32.8 3155,-32.8"/>
</g>
<g id="clust23" class="cluster">
<title>cluster_DashboardModule_imports</title>
<polygon fill="none" stroke="black" points="3163,-40.8 3163,-92.8 3345,-92.8 3345,-40.8 3163,-40.8"/>
</g>
<g id="clust33" class="cluster">
<title>cluster_FormStatusModule</title>
<polygon fill="none" stroke="black" stroke-dasharray="1,5" points="534,-108.8 534,-312.8 716,-312.8 716,-108.8 534,-108.8"/>
</g>
<g id="clust34" class="cluster">
<title>cluster_FormStatusModule_declarations</title>
<polygon fill="none" stroke="black" points="544,-116.8 544,-168.8 706,-168.8 706,-116.8 544,-116.8"/>
</g>
<g id="clust37" class="cluster">
<title>cluster_FormStatusModule_exports</title>
<polygon fill="none" stroke="black" points="542,-252.8 542,-304.8 708,-304.8 708,-252.8 542,-252.8"/>
</g>
<g id="clust46" class="cluster">
<title>cluster_MessagesModule</title>
<polygon fill="none" stroke="black" stroke-dasharray="1,5" points="2955,-32.8 2955,-100.8 3147,-100.8 3147,-32.8 2955,-32.8"/>
</g>
<g id="clust48" class="cluster">
<title>cluster_MessagesModule_imports</title>
<polygon fill="none" stroke="black" points="2963,-40.8 2963,-92.8 3139,-92.8 3139,-40.8 2963,-40.8"/>
</g>
<g id="clust58" class="cluster">
<title>cluster_QrCodeModule</title>
<polygon fill="none" stroke="black" stroke-dasharray="1,5" points="364,-108.8 364,-312.8 526,-312.8 526,-108.8 364,-108.8"/>
</g>
<g id="clust59" class="cluster">
<title>cluster_QrCodeModule_declarations</title>
<polygon fill="none" stroke="black" points="373,-116.8 373,-168.8 515,-168.8 515,-116.8 373,-116.8"/>
</g>
<g id="clust62" class="cluster">
<title>cluster_QrCodeModule_exports</title>
<polygon fill="none" stroke="black" points="372,-252.8 372,-304.8 518,-304.8 518,-252.8 372,-252.8"/>
</g>
<g id="clust65" class="cluster">
<title>cluster_SharedModule</title>
<polygon fill="none" stroke="black" stroke-dasharray="1,5" points="1816,-176.8 1816,-244.8 2184,-244.8 2184,-176.8 1816,-176.8"/>
</g>
<g id="clust66" class="cluster">
<title>cluster_SharedModule_declarations</title>
<polygon fill="none" stroke="black" points="2006,-184.8 2006,-236.8 2176,-236.8 2176,-184.8 2006,-184.8"/>
</g>
<g id="clust69" class="cluster">
<title>cluster_SharedModule_exports</title>
<polygon fill="none" stroke="black" points="1824,-184.8 1824,-236.8 1998,-236.8 1998,-184.8 1824,-184.8"/>
</g>
<g id="clust72" class="cluster">
<title>cluster_StudentsModule</title>
<polygon fill="none" stroke="black" stroke-dasharray="1,5" points="724,-108.8 724,-236.8 1084,-236.8 1084,-108.8 724,-108.8"/>
</g>
<g id="clust73" class="cluster">
<title>cluster_StudentsModule_declarations</title>
<polygon fill="none" stroke="black" points="908,-116.8 908,-168.8 1076,-168.8 1076,-116.8 908,-116.8"/>
</g>
<g id="clust75" class="cluster">
<title>cluster_StudentsModule_imports</title>
<polygon fill="none" stroke="black" points="732,-116.8 732,-168.8 900,-168.8 900,-116.8 732,-116.8"/>
</g>
<g id="clust85" class="cluster">
<title>cluster_WelcomeModule</title>
<polygon fill="none" stroke="black" stroke-dasharray="1,5" points="8,-176.8 8,-380.8 356,-380.8 356,-176.8 8,-176.8"/>
</g>
<g id="clust86" class="cluster">
<title>cluster_WelcomeModule_declarations</title>
<polygon fill="none" stroke="black" points="198,-184.8 198,-236.8 348,-236.8 348,-184.8 198,-184.8"/>
</g>
<g id="clust88" class="cluster">
<title>cluster_WelcomeModule_imports</title>
<polygon fill="none" stroke="black" points="16,-184.8 16,-236.8 190,-236.8 190,-184.8 16,-184.8"/>
</g>
<g id="clust89" class="cluster">
<title>cluster_WelcomeModule_exports</title>
<polygon fill="none" stroke="black" points="194,-320.8 194,-372.8 348,-372.8 348,-320.8 194,-320.8"/>
</g>
<!-- AppComponent -->
<g id="node1" class="node">
<title>AppComponent</title>
<polygon fill="#ffffb3" stroke="black" points="1791.94,-160.8 1686.06,-160.8 1686.06,-124.8 1791.94,-124.8 1791.94,-160.8"/>
<text text-anchor="middle" x="1739" y="-138.6" font-family="Times,serif" font-size="14.00">AppComponent</text>
</g>
<!-- AppModule -->
<g id="node2" class="node">
<title>AppModule</title>
<polygon fill="#8dd3c7" stroke="black" points="1285.66,-228.8 1282.66,-232.8 1261.66,-232.8 1258.66,-228.8 1202.34,-228.8 1202.34,-192.8 1285.66,-192.8 1285.66,-228.8"/>
<text text-anchor="middle" x="1244" y="-206.6" font-family="Times,serif" font-size="14.00">AppModule</text>
</g>
<!-- AppComponent&#45;&gt;AppModule -->
<g id="edge1" class="edge">
<title>AppComponent&#45;&gt;AppModule</title>
<path fill="none" stroke="black" d="M1739,-161C1739,-185.16 1739,-224.8 1739,-224.8 1739,-224.8 1295.78,-224.8 1295.78,-224.8"/>
<polygon fill="black" stroke="black" points="1295.78,-221.3 1285.78,-224.8 1295.78,-228.3 1295.78,-221.3"/>
</g>
<!-- AppComponent  -->
<g id="node7" class="node">
<title>AppComponent </title>
<polygon fill="#80b1d3" stroke="black" points="1298.44,-296.8 1189.56,-296.8 1189.56,-260.8 1298.44,-260.8 1298.44,-296.8"/>
<text text-anchor="middle" x="1244" y="-274.6" font-family="Times,serif" font-size="14.00">AppComponent </text>
</g>
<!-- AppModule&#45;&gt;AppComponent  -->
<g id="edge6" class="edge">
<title>AppModule&#45;&gt;AppComponent </title>
<path fill="none" stroke="black" stroke-dasharray="1,5" d="M1244,-229.02C1244,-229.02 1244,-250.53 1244,-250.53"/>
<polygon fill="black" stroke="black" points="1240.5,-250.53 1244,-260.53 1247.5,-250.53 1240.5,-250.53"/>
</g>
<!-- AppRoutingModule -->
<g id="node3" class="node">
<title>AppRoutingModule</title>
<polygon fill="#8dd3c7" stroke="black" points="1308.28,-160.8 1305.28,-164.8 1284.28,-164.8 1281.28,-160.8 1179.72,-160.8 1179.72,-124.8 1308.28,-124.8 1308.28,-160.8"/>
<text text-anchor="middle" x="1244" y="-138.6" font-family="Times,serif" font-size="14.00">AppRoutingModule</text>
</g>
<!-- AppRoutingModule&#45;&gt;AppModule -->
<g id="edge2" class="edge">
<title>AppRoutingModule&#45;&gt;AppModule</title>
<path fill="none" stroke="black" d="M1244,-161.02C1244,-161.02 1244,-182.53 1244,-182.53"/>
<polygon fill="black" stroke="black" points="1240.5,-182.53 1244,-192.53 1247.5,-182.53 1240.5,-182.53"/>
</g>
<!-- CoreModule -->
<g id="node4" class="node">
<title>CoreModule</title>
<polygon fill="#8dd3c7" stroke="black" points="1530.27,-160.8 1527.27,-164.8 1506.27,-164.8 1503.27,-160.8 1443.73,-160.8 1443.73,-124.8 1530.27,-124.8 1530.27,-160.8"/>
<text text-anchor="middle" x="1487" y="-138.6" font-family="Times,serif" font-size="14.00">CoreModule</text>
</g>
<!-- CoreModule&#45;&gt;AppModule -->
<g id="edge3" class="edge">
<title>CoreModule&#45;&gt;AppModule</title>
<path fill="none" stroke="black" d="M1487,-160.83C1487,-181.57 1487,-212.8 1487,-212.8 1487,-212.8 1295.77,-212.8 1295.77,-212.8"/>
<polygon fill="black" stroke="black" points="1295.77,-209.3 1285.77,-212.8 1295.77,-216.3 1295.77,-209.3"/>
</g>
<!-- IconsProviderModule  -->
<g id="node14" class="node">
<title>IconsProviderModule </title>
<polygon fill="#fb8072" stroke="black" points="2616.59,-84.8 2475.41,-84.8 2475.41,-48.8 2616.59,-48.8 2616.59,-84.8"/>
<text text-anchor="middle" x="2546" y="-62.6" font-family="Times,serif" font-size="14.00">IconsProviderModule </text>
</g>
<!-- CoreModule&#45;&gt;IconsProviderModule  -->
<g id="edge13" class="edge">
<title>CoreModule&#45;&gt;IconsProviderModule </title>
<path fill="none" stroke="black" stroke-dasharray="5,2" d="M1469.65,-124.61C1469.65,-116.52 1469.65,-108.8 1469.65,-108.8 1469.65,-108.8 2546,-108.8 2546,-108.8 2546,-108.8 2546,-94.86 2546,-94.86"/>
<polygon fill="black" stroke="black" points="2549.5,-94.86 2546,-84.86 2542.5,-94.86 2549.5,-94.86"/>
</g>
<!-- LoadingComponent  -->
<g id="node15" class="node">
<title>LoadingComponent </title>
<polygon fill="#fb8072" stroke="black" points="2456.99,-84.8 2325.01,-84.8 2325.01,-48.8 2456.99,-48.8 2456.99,-84.8"/>
<text text-anchor="middle" x="2391" y="-62.6" font-family="Times,serif" font-size="14.00">LoadingComponent </text>
</g>
<!-- CoreModule&#45;&gt;LoadingComponent  -->
<g id="edge14" class="edge">
<title>CoreModule&#45;&gt;LoadingComponent </title>
<path fill="none" stroke="black" stroke-dasharray="5,2" d="M1460.97,-124.69C1460.97,-114.9 1460.97,-104.8 1460.97,-104.8 1460.97,-104.8 2391,-104.8 2391,-104.8 2391,-104.8 2391,-94.91 2391,-94.91"/>
<polygon fill="black" stroke="black" points="2394.5,-94.91 2391,-84.91 2387.5,-94.91 2394.5,-94.91"/>
</g>
<!-- MessagesModule -->
<g id="node5" class="node">
<title>MessagesModule</title>
<polygon fill="#8dd3c7" stroke="black" points="1661.99,-160.8 1658.99,-164.8 1637.99,-164.8 1634.99,-160.8 1548.01,-160.8 1548.01,-124.8 1661.99,-124.8 1661.99,-160.8"/>
<text text-anchor="middle" x="1605" y="-138.6" font-family="Times,serif" font-size="14.00">MessagesModule</text>
</g>
<!-- MessagesModule&#45;&gt;AppModule -->
<g id="edge4" class="edge">
<title>MessagesModule&#45;&gt;AppModule</title>
<path fill="none" stroke="black" d="M1605,-161.09C1605,-183.01 1605,-216.8 1605,-216.8 1605,-216.8 1295.76,-216.8 1295.76,-216.8"/>
<polygon fill="black" stroke="black" points="1295.76,-213.3 1285.76,-216.8 1295.76,-220.3 1295.76,-213.3"/>
</g>
<!-- SharedModule -->
<g id="node6" class="node">
<title>SharedModule</title>
<polygon fill="#8dd3c7" stroke="black" points="1425.43,-160.8 1422.43,-164.8 1401.43,-164.8 1398.43,-160.8 1326.57,-160.8 1326.57,-124.8 1425.43,-124.8 1425.43,-160.8"/>
<text text-anchor="middle" x="1376" y="-138.6" font-family="Times,serif" font-size="14.00">SharedModule</text>
</g>
<!-- SharedModule&#45;&gt;AppModule -->
<g id="edge5" class="edge">
<title>SharedModule&#45;&gt;AppModule</title>
<path fill="none" stroke="black" d="M1392.4,-161.07C1392.4,-179.36 1392.4,-204.8 1392.4,-204.8 1392.4,-204.8 1295.73,-204.8 1295.73,-204.8"/>
<polygon fill="black" stroke="black" points="1295.73,-201.3 1285.73,-204.8 1295.73,-208.3 1295.73,-201.3"/>
</g>
<!-- FormStatusModule -->
<g id="node22" class="node">
<title>FormStatusModule</title>
<polygon fill="#8dd3c7" stroke="black" points="687.12,-228.8 684.12,-232.8 663.12,-232.8 660.12,-228.8 562.88,-228.8 562.88,-192.8 687.12,-192.8 687.12,-228.8"/>
<text text-anchor="middle" x="625" y="-206.6" font-family="Times,serif" font-size="14.00">FormStatusModule</text>
</g>
<!-- SharedModule&#45;&gt;FormStatusModule -->
<g id="edge22" class="edge">
<title>SharedModule&#45;&gt;FormStatusModule</title>
<path fill="none" stroke="black" d="M1343.19,-160.86C1343.19,-165.29 1343.19,-168.8 1343.19,-168.8 1343.19,-168.8 645.69,-168.8 645.69,-168.8 645.69,-168.8 645.69,-182.74 645.69,-182.74"/>
<polygon fill="black" stroke="black" points="642.19,-182.74 645.69,-192.74 649.19,-182.74 642.19,-182.74"/>
</g>
<!-- PureLoadingComponent  -->
<g id="node29" class="node">
<title>PureLoadingComponent </title>
<polygon fill="#fb8072" stroke="black" points="1989.65,-228.8 1832.35,-228.8 1832.35,-192.8 1989.65,-192.8 1989.65,-228.8"/>
<text text-anchor="middle" x="1911" y="-206.6" font-family="Times,serif" font-size="14.00">PureLoadingComponent </text>
</g>
<!-- SharedModule&#45;&gt;PureLoadingComponent  -->
<g id="edge28" class="edge">
<title>SharedModule&#45;&gt;PureLoadingComponent </title>
<path fill="none" stroke="black" stroke-dasharray="5,2" d="M1408.81,-161.08C1408.81,-176.75 1408.81,-196.8 1408.81,-196.8 1408.81,-196.8 1822.26,-196.8 1822.26,-196.8"/>
<polygon fill="black" stroke="black" points="1822.26,-200.3 1832.26,-196.8 1822.26,-193.3 1822.26,-200.3"/>
</g>
<!-- StudentsModule -->
<g id="node31" class="node">
<title>StudentsModule</title>
<polygon fill="#8dd3c7" stroke="black" points="1045.78,-228.8 1042.78,-232.8 1021.78,-232.8 1018.78,-228.8 938.22,-228.8 938.22,-192.8 1045.78,-192.8 1045.78,-228.8"/>
<text text-anchor="middle" x="992" y="-206.6" font-family="Times,serif" font-size="14.00">StudentsModule</text>
</g>
<!-- SharedModule&#45;&gt;StudentsModule -->
<g id="edge30" class="edge">
<title>SharedModule&#45;&gt;StudentsModule</title>
<path fill="none" stroke="black" d="M1359.6,-160.86C1359.6,-172.24 1359.6,-184.8 1359.6,-184.8 1359.6,-184.8 1009.96,-184.8 1009.96,-184.8 1009.96,-184.8 1009.96,-185.59 1009.96,-185.59"/>
<polygon fill="black" stroke="black" points="1006.46,-182.74 1009.96,-192.74 1013.46,-182.74 1006.46,-182.74"/>
</g>
<!-- ClockService -->
<g id="node8" class="node">
<title>ClockService</title>
<ellipse fill="#fdb462" stroke="black" cx="1335" cy="-66.8" rx="63.12" ry="18"/>
<text text-anchor="middle" x="1335" y="-62.6" font-family="Times,serif" font-size="14.00">ClockService</text>
</g>
<!-- ClockService&#45;&gt;AppModule -->
<g id="edge7" class="edge">
<title>ClockService&#45;&gt;AppModule</title>
<path fill="none" stroke="black" d="M1317.59,-84.32C1317.59,-120.64 1317.59,-200.8 1317.59,-200.8 1317.59,-200.8 1295.95,-200.8 1295.95,-200.8"/>
<polygon fill="black" stroke="black" points="1295.95,-197.3 1285.95,-200.8 1295.95,-204.3 1295.95,-197.3"/>
</g>
<!-- ClonerService -->
<g id="node9" class="node">
<title>ClonerService</title>
<ellipse fill="#fdb462" stroke="black" cx="1482" cy="-66.8" rx="66.05" ry="18"/>
<text text-anchor="middle" x="1482" y="-62.6" font-family="Times,serif" font-size="14.00">ClonerService</text>
</g>
<!-- ClonerService&#45;&gt;AppModule -->
<g id="edge8" class="edge">
<title>ClonerService&#45;&gt;AppModule</title>
<path fill="none" stroke="black" d="M1434.42,-79.4C1434.42,-114.15 1434.42,-208.8 1434.42,-208.8 1434.42,-208.8 1295.79,-208.8 1295.79,-208.8"/>
<polygon fill="black" stroke="black" points="1295.79,-205.3 1285.79,-208.8 1295.79,-212.3 1295.79,-205.3"/>
</g>
<!-- ClonerService&#45;&gt;CoreModule -->
<g id="edge15" class="edge">
<title>ClonerService&#45;&gt;CoreModule</title>
<path fill="none" stroke="black" d="M1452.29,-82.92C1452.29,-82.92 1452.29,-114.57 1452.29,-114.57"/>
<polygon fill="black" stroke="black" points="1448.79,-114.57 1452.29,-124.57 1455.79,-114.57 1448.79,-114.57"/>
</g>
<!-- EventBusService -->
<g id="node10" class="node">
<title>EventBusService</title>
<ellipse fill="#fdb462" stroke="black" cx="1644" cy="-66.8" rx="77.59" ry="18"/>
<text text-anchor="middle" x="1644" y="-62.6" font-family="Times,serif" font-size="14.00">EventBusService</text>
</g>
<!-- EventBusService&#45;&gt;AppModule -->
<g id="edge9" class="edge">
<title>EventBusService&#45;&gt;AppModule</title>
<path fill="none" stroke="black" d="M1674.14,-83.57C1674.14,-123.49 1674.14,-220.8 1674.14,-220.8 1674.14,-220.8 1296.03,-220.8 1296.03,-220.8"/>
<polygon fill="black" stroke="black" points="1296.03,-217.3 1286.03,-220.8 1296.03,-224.3 1296.03,-217.3"/>
</g>
<!-- EventBusService&#45;&gt;CoreModule -->
<g id="edge17" class="edge">
<title>EventBusService&#45;&gt;CoreModule</title>
<path fill="none" stroke="black" d="M1598.3,-81.35C1598.3,-85.44 1598.3,-88.8 1598.3,-88.8 1598.3,-88.8 1478.32,-88.8 1478.32,-88.8 1478.32,-88.8 1478.32,-114.52 1478.32,-114.52"/>
<polygon fill="black" stroke="black" points="1474.82,-114.52 1478.32,-124.52 1481.82,-114.52 1474.82,-114.52"/>
</g>
<!-- StudentsService -->
<g id="node11" class="node">
<title>StudentsService</title>
<ellipse fill="#fdb462" stroke="black" cx="1181" cy="-66.8" rx="73.02" ry="18"/>
<text text-anchor="middle" x="1181" y="-62.6" font-family="Times,serif" font-size="14.00">StudentsService</text>
</g>
<!-- StudentsService&#45;&gt;AppModule -->
<g id="edge10" class="edge">
<title>StudentsService&#45;&gt;AppModule</title>
<path fill="none" stroke="black" d="M1143.68,-82.48C1143.68,-119.81 1143.68,-210.8 1143.68,-210.8 1143.68,-210.8 1192.32,-210.8 1192.32,-210.8"/>
<polygon fill="black" stroke="black" points="1192.32,-214.3 1202.32,-210.8 1192.32,-207.3 1192.32,-214.3"/>
</g>
<!-- LoadingComponent -->
<g id="node12" class="node">
<title>LoadingComponent</title>
<polygon fill="#ffffb3" stroke="black" points="2930.99,-84.8 2803.01,-84.8 2803.01,-48.8 2930.99,-48.8 2930.99,-84.8"/>
<text text-anchor="middle" x="2867" y="-62.6" font-family="Times,serif" font-size="14.00">LoadingComponent</text>
</g>
<!-- LoadingComponent&#45;&gt;CoreModule -->
<g id="edge11" class="edge">
<title>LoadingComponent&#45;&gt;CoreModule</title>
<path fill="none" stroke="black" d="M2867,-84.85C2867,-99.17 2867,-116.8 2867,-116.8 2867,-116.8 1521.71,-116.8 1521.71,-116.8 1521.71,-116.8 1521.71,-117.59 1521.71,-117.59"/>
<polygon fill="black" stroke="black" points="1518.21,-114.74 1521.71,-124.74 1525.21,-114.74 1518.21,-114.74"/>
</g>
<!-- IconsProviderModule -->
<g id="node13" class="node">
<title>IconsProviderModule</title>
<polygon fill="#8dd3c7" stroke="black" points="2779.09,-84.8 2776.09,-88.8 2755.09,-88.8 2752.09,-84.8 2640.91,-84.8 2640.91,-48.8 2779.09,-48.8 2779.09,-84.8"/>
<text text-anchor="middle" x="2710" y="-62.6" font-family="Times,serif" font-size="14.00">IconsProviderModule</text>
</g>
<!-- IconsProviderModule&#45;&gt;CoreModule -->
<g id="edge12" class="edge">
<title>IconsProviderModule&#45;&gt;CoreModule</title>
<path fill="none" stroke="black" d="M2710,-84.98C2710,-97.84 2710,-112.8 2710,-112.8 2710,-112.8 1513.03,-112.8 1513.03,-112.8 1513.03,-112.8 1513.03,-114.66 1513.03,-114.66"/>
<polygon fill="black" stroke="black" points="1509.53,-114.66 1513.03,-124.66 1516.53,-114.66 1509.53,-114.66"/>
</g>
<!-- ConfigService -->
<g id="node16" class="node">
<title>ConfigService</title>
<ellipse fill="#fdb462" stroke="black" cx="1899" cy="-66.8" rx="66.64" ry="18"/>
<text text-anchor="middle" x="1899" y="-62.6" font-family="Times,serif" font-size="14.00">ConfigService</text>
</g>
<!-- ConfigService&#45;&gt;CoreModule -->
<g id="edge16" class="edge">
<title>ConfigService&#45;&gt;CoreModule</title>
<path fill="none" stroke="black" d="M1899.12,-84.86C1899.12,-89.29 1899.12,-92.8 1899.12,-92.8 1899.12,-92.8 1487,-92.8 1487,-92.8 1487,-92.8 1487,-114.75 1487,-114.75"/>
<polygon fill="black" stroke="black" points="1483.5,-114.75 1487,-124.75 1490.5,-114.75 1483.5,-114.75"/>
</g>
<!-- LoadingService -->
<g id="node17" class="node">
<title>LoadingService</title>
<ellipse fill="#fdb462" stroke="black" cx="2229" cy="-66.8" rx="72.35" ry="18"/>
<text text-anchor="middle" x="2229" y="-62.6" font-family="Times,serif" font-size="14.00">LoadingService</text>
</g>
<!-- LoadingService&#45;&gt;CoreModule -->
<g id="edge18" class="edge">
<title>LoadingService&#45;&gt;CoreModule</title>
<path fill="none" stroke="black" d="M2162.32,-74.01C2162.32,-83.99 2162.32,-100.8 2162.32,-100.8 2162.32,-100.8 1504.35,-100.8 1504.35,-100.8 1504.35,-100.8 1504.35,-114.74 1504.35,-114.74"/>
<polygon fill="black" stroke="black" points="1500.85,-114.74 1504.35,-124.74 1507.85,-114.74 1500.85,-114.74"/>
</g>
<!-- MessagesService -->
<g id="node18" class="node">
<title>MessagesService</title>
<ellipse fill="#fdb462" stroke="black" cx="2061" cy="-66.8" rx="77.58" ry="18"/>
<text text-anchor="middle" x="2061" y="-62.6" font-family="Times,serif" font-size="14.00">MessagesService</text>
</g>
<!-- MessagesService&#45;&gt;CoreModule -->
<g id="edge19" class="edge">
<title>MessagesService&#45;&gt;CoreModule</title>
<path fill="none" stroke="black" d="M2001.88,-78.66C2001.88,-87.04 2001.88,-96.8 2001.88,-96.8 2001.88,-96.8 1495.68,-96.8 1495.68,-96.8 1495.68,-96.8 1495.68,-114.62 1495.68,-114.62"/>
<polygon fill="black" stroke="black" points="1492.18,-114.62 1495.68,-124.62 1499.18,-114.62 1492.18,-114.62"/>
</g>
<!-- DashboardRoutingModule -->
<g id="node19" class="node">
<title>DashboardRoutingModule</title>
<polygon fill="#8dd3c7" stroke="black" points="3336.82,-84.8 3333.82,-88.8 3312.82,-88.8 3309.82,-84.8 3171.18,-84.8 3171.18,-48.8 3336.82,-48.8 3336.82,-84.8"/>
<text text-anchor="middle" x="3254" y="-62.6" font-family="Times,serif" font-size="14.00">DashboardRoutingModule</text>
</g>
<!-- DashboardModule -->
<g id="node20" class="node">
<title>DashboardModule</title>
<polygon fill="#8dd3c7" stroke="black" points="3314.2,-160.8 3311.2,-164.8 3290.2,-164.8 3287.2,-160.8 3193.8,-160.8 3193.8,-124.8 3314.2,-124.8 3314.2,-160.8"/>
<text text-anchor="middle" x="3254" y="-138.6" font-family="Times,serif" font-size="14.00">DashboardModule</text>
</g>
<!-- DashboardRoutingModule&#45;&gt;DashboardModule -->
<g id="edge20" class="edge">
<title>DashboardRoutingModule&#45;&gt;DashboardModule</title>
<path fill="none" stroke="black" d="M3254,-84.81C3254,-84.81 3254,-114.65 3254,-114.65"/>
<polygon fill="black" stroke="black" points="3250.5,-114.65 3254,-124.65 3257.5,-114.65 3250.5,-114.65"/>
</g>
<!-- FormStatusComponent -->
<g id="node21" class="node">
<title>FormStatusComponent</title>
<polygon fill="#ffffb3" stroke="black" points="697.9,-160.8 552.1,-160.8 552.1,-124.8 697.9,-124.8 697.9,-160.8"/>
<text text-anchor="middle" x="625" y="-138.6" font-family="Times,serif" font-size="14.00">FormStatusComponent</text>
</g>
<!-- FormStatusComponent&#45;&gt;FormStatusModule -->
<g id="edge21" class="edge">
<title>FormStatusComponent&#45;&gt;FormStatusModule</title>
<path fill="none" stroke="black" d="M604.31,-161.02C604.31,-161.02 604.31,-182.53 604.31,-182.53"/>
<polygon fill="black" stroke="black" points="600.81,-182.53 604.31,-192.53 607.81,-182.53 600.81,-182.53"/>
</g>
<!-- FormStatusComponent  -->
<g id="node23" class="node">
<title>FormStatusComponent </title>
<polygon fill="#fb8072" stroke="black" points="699.9,-296.8 550.1,-296.8 550.1,-260.8 699.9,-260.8 699.9,-296.8"/>
<text text-anchor="middle" x="625" y="-274.6" font-family="Times,serif" font-size="14.00">FormStatusComponent </text>
</g>
<!-- FormStatusModule&#45;&gt;FormStatusComponent  -->
<g id="edge23" class="edge">
<title>FormStatusModule&#45;&gt;FormStatusComponent </title>
<path fill="none" stroke="black" stroke-dasharray="5,2" d="M645.69,-229.02C645.69,-229.02 645.69,-250.53 645.69,-250.53"/>
<polygon fill="black" stroke="black" points="642.19,-250.53 645.69,-260.53 649.19,-250.53 642.19,-250.53"/>
</g>
<!-- WelcomeModule -->
<g id="node34" class="node">
<title>WelcomeModule</title>
<polygon fill="#8dd3c7" stroke="black" points="329.69,-296.8 326.69,-300.8 305.69,-300.8 302.69,-296.8 216.31,-296.8 216.31,-260.8 329.69,-260.8 329.69,-296.8"/>
<text text-anchor="middle" x="273" y="-274.6" font-family="Times,serif" font-size="14.00">WelcomeModule</text>
</g>
<!-- FormStatusModule&#45;&gt;WelcomeModule -->
<g id="edge33" class="edge">
<title>FormStatusModule&#45;&gt;WelcomeModule</title>
<path fill="none" stroke="black" d="M604.31,-228.99C604.31,-237.08 604.31,-244.8 604.31,-244.8 604.31,-244.8 291.86,-244.8 291.86,-244.8 291.86,-244.8 291.86,-250.61 291.86,-250.61"/>
<polygon fill="black" stroke="black" points="288.36,-250.61 291.86,-260.61 295.36,-250.61 288.36,-250.61"/>
</g>
<!-- MessagesRoutingModule -->
<g id="node24" class="node">
<title>MessagesRoutingModule</title>
<polygon fill="#8dd3c7" stroke="black" points="3130.6,-84.8 3127.6,-88.8 3106.6,-88.8 3103.6,-84.8 2971.4,-84.8 2971.4,-48.8 3130.6,-48.8 3130.6,-84.8"/>
<text text-anchor="middle" x="3051" y="-62.6" font-family="Times,serif" font-size="14.00">MessagesRoutingModule</text>
</g>
<!-- MessagesRoutingModule&#45;&gt;MessagesModule -->
<g id="edge24" class="edge">
<title>MessagesRoutingModule&#45;&gt;MessagesModule</title>
<path fill="none" stroke="black" d="M3051,-85.08C3051,-100.75 3051,-120.8 3051,-120.8 3051,-120.8 1630.15,-120.8 1630.15,-120.8 1630.15,-120.8 1630.15,-121.18 1630.15,-121.18"/>
<polygon fill="black" stroke="black" points="1626.65,-114.63 1630.15,-124.63 1633.65,-114.63 1626.65,-114.63"/>
</g>
<!-- QrCodeComponent -->
<g id="node25" class="node">
<title>QrCodeComponent</title>
<polygon fill="#ffffb3" stroke="black" points="506.66,-160.8 381.34,-160.8 381.34,-124.8 506.66,-124.8 506.66,-160.8"/>
<text text-anchor="middle" x="444" y="-138.6" font-family="Times,serif" font-size="14.00">QrCodeComponent</text>
</g>
<!-- QrCodeModule -->
<g id="node26" class="node">
<title>QrCodeModule</title>
<polygon fill="#8dd3c7" stroke="black" points="495.88,-228.8 492.88,-232.8 471.88,-232.8 468.88,-228.8 392.12,-228.8 392.12,-192.8 495.88,-192.8 495.88,-228.8"/>
<text text-anchor="middle" x="444" y="-206.6" font-family="Times,serif" font-size="14.00">QrCodeModule</text>
</g>
<!-- QrCodeComponent&#45;&gt;QrCodeModule -->
<g id="edge25" class="edge">
<title>QrCodeComponent&#45;&gt;QrCodeModule</title>
<path fill="none" stroke="black" d="M444,-161.02C444,-161.02 444,-182.53 444,-182.53"/>
<polygon fill="black" stroke="black" points="440.5,-182.53 444,-192.53 447.5,-182.53 440.5,-182.53"/>
</g>
<!-- QrCodeComponent  -->
<g id="node27" class="node">
<title>QrCodeComponent </title>
<polygon fill="#fb8072" stroke="black" points="509.66,-296.8 380.34,-296.8 380.34,-260.8 509.66,-260.8 509.66,-296.8"/>
<text text-anchor="middle" x="445" y="-274.6" font-family="Times,serif" font-size="14.00">QrCodeComponent </text>
</g>
<!-- QrCodeModule&#45;&gt;QrCodeComponent  -->
<g id="edge26" class="edge">
<title>QrCodeModule&#45;&gt;QrCodeComponent </title>
<path fill="none" stroke="black" stroke-dasharray="5,2" d="M444,-229.02C444,-229.02 444,-250.53 444,-250.53"/>
<polygon fill="black" stroke="black" points="440.5,-250.53 444,-260.53 447.5,-250.53 440.5,-250.53"/>
</g>
<!-- QrCodeModule&#45;&gt;WelcomeModule -->
<g id="edge34" class="edge">
<title>QrCodeModule&#45;&gt;WelcomeModule</title>
<path fill="none" stroke="black" d="M392.04,-210.8C375.05,-210.8 360.45,-210.8 360.45,-210.8 360.45,-210.8 360.45,-278.8 360.45,-278.8 360.45,-278.8 339.87,-278.8 339.87,-278.8"/>
<polygon fill="black" stroke="black" points="339.87,-275.3 329.87,-278.8 339.87,-282.3 339.87,-275.3"/>
</g>
<!-- PureLoadingComponent -->
<g id="node28" class="node">
<title>PureLoadingComponent</title>
<polygon fill="#ffffb3" stroke="black" points="2167.65,-228.8 2014.35,-228.8 2014.35,-192.8 2167.65,-192.8 2167.65,-228.8"/>
<text text-anchor="middle" x="2091" y="-206.6" font-family="Times,serif" font-size="14.00">PureLoadingComponent</text>
</g>
<!-- PureLoadingComponent&#45;&gt;SharedModule -->
<g id="edge27" class="edge">
<title>PureLoadingComponent&#45;&gt;SharedModule</title>
<path fill="none" stroke="black" d="M2076.36,-192.61C2076.36,-184.52 2076.36,-176.8 2076.36,-176.8 2076.36,-176.8 1376,-176.8 1376,-176.8 1376,-176.8 1376,-170.99 1376,-170.99"/>
<polygon fill="black" stroke="black" points="1379.5,-170.99 1376,-160.99 1372.5,-170.99 1379.5,-170.99"/>
</g>
<!-- ListStudentsComponent -->
<g id="node30" class="node">
<title>ListStudentsComponent</title>
<polygon fill="#ffffb3" stroke="black" points="1067.84,-160.8 916.16,-160.8 916.16,-124.8 1067.84,-124.8 1067.84,-160.8"/>
<text text-anchor="middle" x="992" y="-138.6" font-family="Times,serif" font-size="14.00">ListStudentsComponent</text>
</g>
<!-- ListStudentsComponent&#45;&gt;StudentsModule -->
<g id="edge29" class="edge">
<title>ListStudentsComponent&#45;&gt;StudentsModule</title>
<path fill="none" stroke="black" d="M974.04,-161.02C974.04,-161.02 974.04,-182.53 974.04,-182.53"/>
<polygon fill="black" stroke="black" points="970.54,-182.53 974.04,-192.53 977.54,-182.53 970.54,-182.53"/>
</g>
<!-- StudentsRoutingModule -->
<g id="node32" class="node">
<title>StudentsRoutingModule</title>
<polygon fill="#8dd3c7" stroke="black" points="892.4,-160.8 889.4,-164.8 868.4,-164.8 865.4,-160.8 739.6,-160.8 739.6,-124.8 892.4,-124.8 892.4,-160.8"/>
<text text-anchor="middle" x="816" y="-138.6" font-family="Times,serif" font-size="14.00">StudentsRoutingModule</text>
</g>
<!-- StudentsRoutingModule&#45;&gt;StudentsModule -->
<g id="edge31" class="edge">
<title>StudentsRoutingModule&#45;&gt;StudentsModule</title>
<path fill="none" stroke="black" d="M816,-161.02C816,-181.17 816,-210.8 816,-210.8 816,-210.8 927.76,-210.8 927.76,-210.8"/>
<polygon fill="black" stroke="black" points="927.76,-214.3 937.76,-210.8 927.76,-207.3 927.76,-214.3"/>
</g>
<!-- WelcomeComponent -->
<g id="node33" class="node">
<title>WelcomeComponent</title>
<polygon fill="#ffffb3" stroke="black" points="340.47,-228.8 205.53,-228.8 205.53,-192.8 340.47,-192.8 340.47,-228.8"/>
<text text-anchor="middle" x="273" y="-206.6" font-family="Times,serif" font-size="14.00">WelcomeComponent</text>
</g>
<!-- WelcomeComponent&#45;&gt;WelcomeModule -->
<g id="edge32" class="edge">
<title>WelcomeComponent&#45;&gt;WelcomeModule</title>
<path fill="none" stroke="black" d="M254.14,-229.02C254.14,-229.02 254.14,-250.53 254.14,-250.53"/>
<polygon fill="black" stroke="black" points="250.64,-250.53 254.14,-260.53 257.64,-250.53 250.64,-250.53"/>
</g>
<!-- WelcomeComponent  -->
<g id="node36" class="node">
<title>WelcomeComponent </title>
<polygon fill="#fb8072" stroke="black" points="340.47,-364.8 201.53,-364.8 201.53,-328.8 340.47,-328.8 340.47,-364.8"/>
<text text-anchor="middle" x="271" y="-342.6" font-family="Times,serif" font-size="14.00">WelcomeComponent </text>
</g>
<!-- WelcomeModule&#45;&gt;WelcomeComponent  -->
<g id="edge36" class="edge">
<title>WelcomeModule&#45;&gt;WelcomeComponent </title>
<path fill="none" stroke="black" stroke-dasharray="5,2" d="M273,-297.02C273,-297.02 273,-318.53 273,-318.53"/>
<polygon fill="black" stroke="black" points="269.5,-318.53 273,-328.53 276.5,-318.53 269.5,-318.53"/>
</g>
<!-- WelcomeRoutingModule -->
<g id="node35" class="node">
<title>WelcomeRoutingModule</title>
<polygon fill="#8dd3c7" stroke="black" points="182.3,-228.8 179.3,-232.8 158.3,-232.8 155.3,-228.8 23.7,-228.8 23.7,-192.8 182.3,-192.8 182.3,-228.8"/>
<text text-anchor="middle" x="103" y="-206.6" font-family="Times,serif" font-size="14.00">WelcomeRoutingModule</text>
</g>
<!-- WelcomeRoutingModule&#45;&gt;WelcomeModule -->
<g id="edge35" class="edge">
<title>WelcomeRoutingModule&#45;&gt;WelcomeModule</title>
<path fill="none" stroke="black" d="M103,-229.02C103,-249.17 103,-278.8 103,-278.8 103,-278.8 206.39,-278.8 206.39,-278.8"/>
<polygon fill="black" stroke="black" points="206.39,-282.3 216.39,-278.8 206.39,-275.3 206.39,-282.3"/>
</g>
</g>
</svg>
