<?xml version="1.0" encoding="UTF-8" standalone="no"?>
<!DOCTYPE svg PUBLIC "-//W3C//DTD SVG 1.1//EN"
 "http://www.w3.org/Graphics/SVG/1.1/DTD/svg11.dtd">
<!-- Generated by graphviz version 5.0.0 (20220707.1540)
 -->
<!-- Title: dependencies Pages: 1 -->
<svg width="2421pt" height="397pt"
 viewBox="0.00 0.00 2421.00 396.80" xmlns="http://www.w3.org/2000/svg" xmlns:xlink="http://www.w3.org/1999/xlink">
<g id="graph0" class="graph" transform="scale(1 1) rotate(0) translate(4 392.8)">
<title>dependencies</title>
<polygon fill="white" stroke="transparent" points="-4,4 -4,-392.8 2417,-392.8 2417,4 -4,4"/>
<text text-anchor="middle" x="1206.5" y="-8.2" font-family="sans-serif" font-size="14.00">dependencies</text>
<g id="clust1" class="cluster">
<title>cluster_AppModule</title>
<polygon fill="none" stroke="black" stroke-dasharray="1,5" points="8,-32.8 8,-312.8 717,-312.8 717,-32.8 8,-32.8"/>
</g>
<g id="clust2" class="cluster">
<title>cluster_AppModule_declarations</title>
<polygon fill="none" stroke="black" points="48,-116.8 48,-168.8 170,-168.8 170,-116.8 48,-116.8"/>
</g>
<g id="clust4" class="cluster">
<title>cluster_AppModule_imports</title>
<polygon fill="none" stroke="black" points="212,-116.8 212,-168.8 709,-168.8 709,-116.8 212,-116.8"/>
</g>
<g id="clust6" class="cluster">
<title>cluster_AppModule_bootstrap</title>
<polygon fill="none" stroke="black" points="139,-252.8 139,-304.8 263,-304.8 263,-252.8 139,-252.8"/>
</g>
<g id="clust7" class="cluster">
<title>cluster_AppModule_providers</title>
<polygon fill="none" stroke="black" points="16,-40.8 16,-92.8 646,-92.8 646,-40.8 16,-40.8"/>
</g>
<g id="clust14" class="cluster">
<title>cluster_CoreModule</title>
<polygon fill="none" stroke="black" stroke-dasharray="1,5" points="725,-32.8 725,-100.8 1856,-100.8 1856,-32.8 725,-32.8"/>
</g>
<g id="clust15" class="cluster">
<title>cluster_CoreModule_declarations</title>
<polygon fill="none" stroke="black" points="1704,-40.8 1704,-92.8 1848,-92.8 1848,-40.8 1704,-40.8"/>
</g>
<g id="clust17" class="cluster">
<title>cluster_CoreModule_imports</title>
<polygon fill="none" stroke="black" points="1542,-40.8 1542,-92.8 1696,-92.8 1696,-40.8 1542,-40.8"/>
</g>
<g id="clust18" class="cluster">
<title>cluster_CoreModule_exports</title>
<polygon fill="none" stroke="black" points="1226,-40.8 1226,-92.8 1534,-92.8 1534,-40.8 1226,-40.8"/>
</g>
<g id="clust20" class="cluster">
<title>cluster_CoreModule_providers</title>
<polygon fill="none" stroke="black" points="733,-40.8 733,-92.8 1218,-92.8 1218,-40.8 733,-40.8"/>
</g>
<g id="clust21" class="cluster">
<title>cluster_DashboardModule</title>
<polygon fill="none" stroke="black" stroke-dasharray="1,5" points="2207,-32.8 2207,-168.8 2405,-168.8 2405,-32.8 2207,-32.8"/>
</g>
<g id="clust23" class="cluster">
<title>cluster_DashboardModule_imports</title>
<polygon fill="none" stroke="black" points="2215,-40.8 2215,-92.8 2397,-92.8 2397,-40.8 2215,-40.8"/>
</g>
<g id="clust33" class="cluster">
<title>cluster_FormStatusModule</title>
<polygon fill="none" stroke="black" stroke-dasharray="1,5" points="1479,-108.8 1479,-312.8 1661,-312.8 1661,-108.8 1479,-108.8"/>
</g>
<g id="clust34" class="cluster">
<title>cluster_FormStatusModule_declarations</title>
<polygon fill="none" stroke="black" points="1487,-116.8 1487,-168.8 1649,-168.8 1649,-116.8 1487,-116.8"/>
</g>
<g id="clust37" class="cluster">
<title>cluster_FormStatusModule_exports</title>
<polygon fill="none" stroke="black" points="1487,-252.8 1487,-304.8 1653,-304.8 1653,-252.8 1487,-252.8"/>
</g>
<g id="clust46" class="cluster">
<title>cluster_MessagesModule</title>
<polygon fill="none" stroke="black" stroke-dasharray="1,5" points="1864,-32.8 1864,-100.8 2056,-100.8 2056,-32.8 1864,-32.8"/>
</g>
<g id="clust48" class="cluster">
<title>cluster_MessagesModule_imports</title>
<polygon fill="none" stroke="black" points="1872,-40.8 1872,-92.8 2048,-92.8 2048,-40.8 1872,-40.8"/>
</g>
<g id="clust58" class="cluster">
<title>cluster_QrCodeModule</title>
<polygon fill="none" stroke="black" stroke-dasharray="1,5" points="2037,-108.8 2037,-312.8 2199,-312.8 2199,-108.8 2037,-108.8"/>
</g>
<g id="clust59" class="cluster">
<title>cluster_QrCodeModule_declarations</title>
<polygon fill="none" stroke="black" points="2046,-116.8 2046,-168.8 2188,-168.8 2188,-116.8 2046,-116.8"/>
</g>
<g id="clust62" class="cluster">
<title>cluster_QrCodeModule_exports</title>
<polygon fill="none" stroke="black" points="2045,-252.8 2045,-304.8 2191,-304.8 2191,-252.8 2045,-252.8"/>
</g>
<g id="clust65" class="cluster">
<title>cluster_SharedModule</title>
<polygon fill="none" stroke="black" stroke-dasharray="1,5" points="1103,-176.8 1103,-244.8 1471,-244.8 1471,-176.8 1103,-176.8"/>
</g>
<g id="clust66" class="cluster">
<title>cluster_SharedModule_declarations</title>
<polygon fill="none" stroke="black" points="1293,-184.8 1293,-236.8 1463,-236.8 1463,-184.8 1293,-184.8"/>
</g>
<g id="clust69" class="cluster">
<title>cluster_SharedModule_exports</title>
<polygon fill="none" stroke="black" points="1111,-184.8 1111,-236.8 1285,-236.8 1285,-184.8 1111,-184.8"/>
</g>
<g id="clust72" class="cluster">
<title>cluster_StudentsModule</title>
<polygon fill="none" stroke="black" stroke-dasharray="1,5" points="1669,-108.8 1669,-236.8 2029,-236.8 2029,-108.8 1669,-108.8"/>
</g>
<g id="clust73" class="cluster">
<title>cluster_StudentsModule_declarations</title>
<polygon fill="none" stroke="black" points="1853,-116.8 1853,-168.8 2021,-168.8 2021,-116.8 1853,-116.8"/>
</g>
<g id="clust75" class="cluster">
<title>cluster_StudentsModule_imports</title>
<polygon fill="none" stroke="black" points="1677,-116.8 1677,-168.8 1845,-168.8 1845,-116.8 1677,-116.8"/>
</g>
<g id="clust85" class="cluster">
<title>cluster_WelcomeModule</title>
<polygon fill="none" stroke="black" stroke-dasharray="1,5" points="725,-176.8 725,-380.8 1073,-380.8 1073,-176.8 725,-176.8"/>
</g>
<g id="clust86" class="cluster">
<title>cluster_WelcomeModule_declarations</title>
<polygon fill="none" stroke="black" points="915,-184.8 915,-236.8 1065,-236.8 1065,-184.8 915,-184.8"/>
</g>
<g id="clust88" class="cluster">
<title>cluster_WelcomeModule_imports</title>
<polygon fill="none" stroke="black" points="733,-184.8 733,-236.8 907,-236.8 907,-184.8 733,-184.8"/>
</g>
<g id="clust89" class="cluster">
<title>cluster_WelcomeModule_exports</title>
<polygon fill="none" stroke="black" points="911,-320.8 911,-372.8 1065,-372.8 1065,-320.8 911,-320.8"/>
</g>
<!-- AppComponent -->
<g id="node1" class="node">
<title>AppComponent</title>
<polygon fill="#ffffb3" stroke="black" points="161.94,-160.8 56.06,-160.8 56.06,-124.8 161.94,-124.8 161.94,-160.8"/>
<text text-anchor="middle" x="109" y="-138.6" font-family="Times,serif" font-size="14.00">AppComponent</text>
</g>
<!-- AppModule -->
<g id="node2" class="node">
<title>AppModule</title>
<polygon fill="#8dd3c7" stroke="black" points="242.66,-228.8 239.66,-232.8 218.66,-232.8 215.66,-228.8 159.34,-228.8 159.34,-192.8 242.66,-192.8 242.66,-228.8"/>
<text text-anchor="middle" x="201" y="-206.6" font-family="Times,serif" font-size="14.00">AppModule</text>
</g>
<!-- AppComponent&#45;&gt;AppModule -->
<g id="edge1" class="edge">
<title>AppComponent&#45;&gt;AppModule</title>
<path fill="none" stroke="black" d="M161.89,-142.8C163.59,-142.8 164.57,-142.8 164.57,-142.8 164.57,-142.8 164.57,-182.58 164.57,-182.58"/>
<polygon fill="black" stroke="black" points="161.07,-182.58 164.57,-192.58 168.07,-182.58 161.07,-182.58"/>
</g>
<!-- AppComponent  -->
<g id="node7" class="node">
<title>AppComponent </title>
<polygon fill="#80b1d3" stroke="black" points="255.44,-296.8 146.56,-296.8 146.56,-260.8 255.44,-260.8 255.44,-296.8"/>
<text text-anchor="middle" x="201" y="-274.6" font-family="Times,serif" font-size="14.00">AppComponent </text>
</g>
<!-- AppModule&#45;&gt;AppComponent  -->
<g id="edge6" class="edge">
<title>AppModule&#45;&gt;AppComponent </title>
<path fill="none" stroke="black" stroke-dasharray="1,5" d="M201,-229.02C201,-229.02 201,-250.53 201,-250.53"/>
<polygon fill="black" stroke="black" points="197.5,-250.53 201,-260.53 204.5,-250.53 197.5,-250.53"/>
</g>
<!-- AppRoutingModule -->
<g id="node3" class="node">
<title>AppRoutingModule</title>
<polygon fill="#8dd3c7" stroke="black" points="584.28,-160.8 581.28,-164.8 560.28,-164.8 557.28,-160.8 455.72,-160.8 455.72,-124.8 584.28,-124.8 584.28,-160.8"/>
<text text-anchor="middle" x="520" y="-138.6" font-family="Times,serif" font-size="14.00">AppRoutingModule</text>
</g>
<!-- AppRoutingModule&#45;&gt;AppModule -->
<g id="edge2" class="edge">
<title>AppRoutingModule&#45;&gt;AppModule</title>
<path fill="none" stroke="black" d="M520,-161.02C520,-181.17 520,-210.8 520,-210.8 520,-210.8 252.7,-210.8 252.7,-210.8"/>
<polygon fill="black" stroke="black" points="252.7,-207.3 242.7,-210.8 252.7,-214.3 252.7,-207.3"/>
</g>
<!-- CoreModule -->
<g id="node4" class="node">
<title>CoreModule</title>
<polygon fill="#8dd3c7" stroke="black" points="306.27,-160.8 303.27,-164.8 282.27,-164.8 279.27,-160.8 219.73,-160.8 219.73,-124.8 306.27,-124.8 306.27,-160.8"/>
<text text-anchor="middle" x="263" y="-138.6" font-family="Times,serif" font-size="14.00">CoreModule</text>
</g>
<!-- CoreModule&#45;&gt;AppModule -->
<g id="edge3" class="edge">
<title>CoreModule&#45;&gt;AppModule</title>
<path fill="none" stroke="black" d="M231.22,-161.02C231.22,-161.02 231.22,-182.53 231.22,-182.53"/>
<polygon fill="black" stroke="black" points="227.72,-182.53 231.22,-192.53 234.72,-182.53 227.72,-182.53"/>
</g>
<!-- IconsProviderModule  -->
<g id="node14" class="node">
<title>IconsProviderModule </title>
<polygon fill="#fb8072" stroke="black" points="1525.59,-84.8 1384.41,-84.8 1384.41,-48.8 1525.59,-48.8 1525.59,-84.8"/>
<text text-anchor="middle" x="1455" y="-62.6" font-family="Times,serif" font-size="14.00">IconsProviderModule </text>
</g>
<!-- CoreModule&#45;&gt;IconsProviderModule  -->
<g id="edge13" class="edge">
<title>CoreModule&#45;&gt;IconsProviderModule </title>
<path fill="none" stroke="black" stroke-dasharray="5,2" d="M238.9,-124.61C238.9,-116.52 238.9,-108.8 238.9,-108.8 238.9,-108.8 1419.51,-108.8 1419.51,-108.8 1419.51,-108.8 1419.51,-94.86 1419.51,-94.86"/>
<polygon fill="black" stroke="black" points="1423.01,-94.86 1419.51,-84.86 1416.01,-94.86 1423.01,-94.86"/>
</g>
<!-- LoadingComponent  -->
<g id="node15" class="node">
<title>LoadingComponent </title>
<polygon fill="#fb8072" stroke="black" points="1365.99,-84.8 1234.01,-84.8 1234.01,-48.8 1365.99,-48.8 1365.99,-84.8"/>
<text text-anchor="middle" x="1300" y="-62.6" font-family="Times,serif" font-size="14.00">LoadingComponent </text>
</g>
<!-- CoreModule&#45;&gt;LoadingComponent  -->
<g id="edge14" class="edge">
<title>CoreModule&#45;&gt;LoadingComponent </title>
<path fill="none" stroke="black" stroke-dasharray="5,2" d="M229.26,-124.69C229.26,-114.9 229.26,-104.8 229.26,-104.8 229.26,-104.8 1255.42,-104.8 1255.42,-104.8 1255.42,-104.8 1255.42,-94.91 1255.42,-94.91"/>
<polygon fill="black" stroke="black" points="1258.92,-94.91 1255.42,-84.91 1251.92,-94.91 1258.92,-94.91"/>
</g>
<!-- MessagesModule -->
<g id="node5" class="node">
<title>MessagesModule</title>
<polygon fill="#8dd3c7" stroke="black" points="437.99,-160.8 434.99,-164.8 413.99,-164.8 410.99,-160.8 324.01,-160.8 324.01,-124.8 437.99,-124.8 437.99,-160.8"/>
<text text-anchor="middle" x="381" y="-138.6" font-family="Times,serif" font-size="14.00">MessagesModule</text>
</g>
<!-- MessagesModule&#45;&gt;AppModule -->
<g id="edge4" class="edge">
<title>MessagesModule&#45;&gt;AppModule</title>
<path fill="none" stroke="black" d="M381,-160.83C381,-177.2 381,-198.8 381,-198.8 381,-198.8 252.75,-198.8 252.75,-198.8"/>
<polygon fill="black" stroke="black" points="252.75,-195.3 242.75,-198.8 252.75,-202.3 252.75,-195.3"/>
</g>
<!-- SharedModule -->
<g id="node6" class="node">
<title>SharedModule</title>
<polygon fill="#8dd3c7" stroke="black" points="701.43,-160.8 698.43,-164.8 677.43,-164.8 674.43,-160.8 602.57,-160.8 602.57,-124.8 701.43,-124.8 701.43,-160.8"/>
<text text-anchor="middle" x="652" y="-138.6" font-family="Times,serif" font-size="14.00">SharedModule</text>
</g>
<!-- SharedModule&#45;&gt;AppModule -->
<g id="edge5" class="edge">
<title>SharedModule&#45;&gt;AppModule</title>
<path fill="none" stroke="black" d="M652,-160.95C652,-184.56 652,-222.8 652,-222.8 652,-222.8 253.02,-222.8 253.02,-222.8"/>
<polygon fill="black" stroke="black" points="253.02,-219.3 243.02,-222.8 253.02,-226.3 253.02,-219.3"/>
</g>
<!-- FormStatusModule -->
<g id="node22" class="node">
<title>FormStatusModule</title>
<polygon fill="#8dd3c7" stroke="black" points="1620.12,-228.8 1617.12,-232.8 1596.12,-232.8 1593.12,-228.8 1495.88,-228.8 1495.88,-192.8 1620.12,-192.8 1620.12,-228.8"/>
<text text-anchor="middle" x="1558" y="-206.6" font-family="Times,serif" font-size="14.00">FormStatusModule</text>
</g>
<!-- SharedModule&#45;&gt;FormStatusModule -->
<g id="edge22" class="edge">
<title>SharedModule&#45;&gt;FormStatusModule</title>
<path fill="none" stroke="black" d="M701.22,-133.8C877.69,-133.8 1468.23,-133.8 1468.23,-133.8 1468.23,-133.8 1468.23,-204.8 1468.23,-204.8 1468.23,-204.8 1485.65,-204.8 1485.65,-204.8"/>
<polygon fill="black" stroke="black" points="1485.65,-208.3 1495.65,-204.8 1485.65,-201.3 1485.65,-208.3"/>
</g>
<!-- PureLoadingComponent  -->
<g id="node29" class="node">
<title>PureLoadingComponent </title>
<polygon fill="#fb8072" stroke="black" points="1276.65,-228.8 1119.35,-228.8 1119.35,-192.8 1276.65,-192.8 1276.65,-228.8"/>
<text text-anchor="middle" x="1198" y="-206.6" font-family="Times,serif" font-size="14.00">PureLoadingComponent </text>
</g>
<!-- SharedModule&#45;&gt;PureLoadingComponent  -->
<g id="edge28" class="edge">
<title>SharedModule&#45;&gt;PureLoadingComponent </title>
<path fill="none" stroke="black" stroke-dasharray="5,2" d="M701.64,-151.8C830.33,-151.8 1164.8,-151.8 1164.8,-151.8 1164.8,-151.8 1164.8,-182.78 1164.8,-182.78"/>
<polygon fill="black" stroke="black" points="1161.3,-182.78 1164.8,-192.78 1168.3,-182.78 1161.3,-182.78"/>
</g>
<!-- StudentsModule -->
<g id="node31" class="node">
<title>StudentsModule</title>
<polygon fill="#8dd3c7" stroke="black" points="1814.78,-228.8 1811.78,-232.8 1790.78,-232.8 1787.78,-228.8 1707.22,-228.8 1707.22,-192.8 1814.78,-192.8 1814.78,-228.8"/>
<text text-anchor="middle" x="1761" y="-206.6" font-family="Times,serif" font-size="14.00">StudentsModule</text>
</g>
<!-- SharedModule&#45;&gt;StudentsModule -->
<g id="edge30" class="edge">
<title>SharedModule&#45;&gt;StudentsModule</title>
<path fill="none" stroke="black" d="M627.39,-160.99C627.39,-169.08 627.39,-176.8 627.39,-176.8 627.39,-176.8 1743.04,-176.8 1743.04,-176.8 1743.04,-176.8 1743.04,-182.61 1743.04,-182.61"/>
<polygon fill="black" stroke="black" points="1739.54,-182.61 1743.04,-192.61 1746.54,-182.61 1739.54,-182.61"/>
</g>
<!-- WelcomeModule -->
<g id="node34" class="node">
<title>WelcomeModule</title>
<polygon fill="#8dd3c7" stroke="black" points="1055.69,-296.8 1052.69,-300.8 1031.69,-300.8 1028.69,-296.8 942.31,-296.8 942.31,-260.8 1055.69,-260.8 1055.69,-296.8"/>
<text text-anchor="middle" x="999" y="-274.6" font-family="Times,serif" font-size="14.00">WelcomeModule</text>
</g>
<!-- SharedModule&#45;&gt;WelcomeModule -->
<g id="edge35" class="edge">
<title>SharedModule&#45;&gt;WelcomeModule</title>
<path fill="none" stroke="black" d="M676.61,-161.07C676.61,-199.43 676.61,-284.8 676.61,-284.8 676.61,-284.8 932.1,-284.8 932.1,-284.8"/>
<polygon fill="black" stroke="black" points="932.1,-288.3 942.1,-284.8 932.1,-281.3 932.1,-288.3"/>
</g>
<!-- ClockService -->
<g id="node8" class="node">
<title>ClockService</title>
<ellipse fill="#fdb462" stroke="black" cx="251" cy="-66.8" rx="63.12" ry="18"/>
<text text-anchor="middle" x="251" y="-62.6" font-family="Times,serif" font-size="14.00">ClockService</text>
</g>
<!-- ClockService&#45;&gt;AppModule -->
<g id="edge7" class="edge">
<title>ClockService&#45;&gt;AppModule</title>
<path fill="none" stroke="black" d="M203.78,-79.08C203.78,-79.08 203.78,-182.79 203.78,-182.79"/>
<polygon fill="black" stroke="black" points="200.28,-182.79 203.78,-192.79 207.28,-182.79 200.28,-182.79"/>
</g>
<!-- ClonerService -->
<g id="node9" class="node">
<title>ClonerService</title>
<ellipse fill="#fdb462" stroke="black" cx="398" cy="-66.8" rx="66.05" ry="18"/>
<text text-anchor="middle" x="398" y="-62.6" font-family="Times,serif" font-size="14.00">ClonerService</text>
</g>
<!-- ClonerService&#45;&gt;AppModule -->
<g id="edge8" class="edge">
<title>ClonerService&#45;&gt;AppModule</title>
<path fill="none" stroke="black" d="M446.8,-79.05C446.8,-112.82 446.8,-204.8 446.8,-204.8 446.8,-204.8 252.7,-204.8 252.7,-204.8"/>
<polygon fill="black" stroke="black" points="252.7,-201.3 242.7,-204.8 252.7,-208.3 252.7,-201.3"/>
</g>
<!-- ClonerService&#45;&gt;CoreModule -->
<g id="edge15" class="edge">
<title>ClonerService&#45;&gt;CoreModule</title>
<path fill="none" stroke="black" d="M331.72,-66.8C324.12,-66.8 319.03,-66.8 319.03,-66.8 319.03,-66.8 319.03,-142.8 319.03,-142.8 319.03,-142.8 316.32,-142.8 316.32,-142.8"/>
<polygon fill="black" stroke="black" points="316.32,-139.3 306.32,-142.8 316.32,-146.3 316.32,-139.3"/>
</g>
<!-- EventBusService -->
<g id="node10" class="node">
<title>EventBusService</title>
<ellipse fill="#fdb462" stroke="black" cx="560" cy="-66.8" rx="77.59" ry="18"/>
<text text-anchor="middle" x="560" y="-62.6" font-family="Times,serif" font-size="14.00">EventBusService</text>
</g>
<!-- EventBusService&#45;&gt;AppModule -->
<g id="edge9" class="edge">
<title>EventBusService&#45;&gt;AppModule</title>
<path fill="none" stroke="black" d="M593.59,-83.14C593.59,-122.01 593.59,-216.8 593.59,-216.8 593.59,-216.8 253.01,-216.8 253.01,-216.8"/>
<polygon fill="black" stroke="black" points="253.01,-213.3 243.01,-216.8 253.01,-220.3 253.01,-213.3"/>
</g>
<!-- EventBusService&#45;&gt;CoreModule -->
<g id="edge17" class="edge">
<title>EventBusService&#45;&gt;CoreModule</title>
<path fill="none" stroke="black" d="M533.42,-84.13C533.42,-86.86 533.42,-88.8 533.42,-88.8 533.42,-88.8 248.54,-88.8 248.54,-88.8 248.54,-88.8 248.54,-114.52 248.54,-114.52"/>
<polygon fill="black" stroke="black" points="245.04,-114.52 248.54,-124.52 252.04,-114.52 245.04,-114.52"/>
</g>
<!-- StudentsService -->
<g id="node11" class="node">
<title>StudentsService</title>
<ellipse fill="#fdb462" stroke="black" cx="97" cy="-66.8" rx="73.02" ry="18"/>
<text text-anchor="middle" x="97" y="-62.6" font-family="Times,serif" font-size="14.00">StudentsService</text>
</g>
<!-- StudentsService&#45;&gt;AppModule -->
<g id="edge10" class="edge">
<title>StudentsService&#45;&gt;AppModule</title>
<path fill="none" stroke="black" d="M167.41,-71.93C167.41,-71.93 167.41,-182.71 167.41,-182.71"/>
<polygon fill="black" stroke="black" points="163.91,-182.71 167.41,-192.71 170.91,-182.71 163.91,-182.71"/>
</g>
<!-- LoadingComponent -->
<g id="node12" class="node">
<title>LoadingComponent</title>
<polygon fill="#ffffb3" stroke="black" points="1839.99,-84.8 1712.01,-84.8 1712.01,-48.8 1839.99,-48.8 1839.99,-84.8"/>
<text text-anchor="middle" x="1776" y="-62.6" font-family="Times,serif" font-size="14.00">LoadingComponent</text>
</g>
<!-- LoadingComponent&#45;&gt;CoreModule -->
<g id="edge11" class="edge">
<title>LoadingComponent&#45;&gt;CoreModule</title>
<path fill="none" stroke="black" d="M1774.73,-84.85C1774.73,-99.17 1774.73,-116.8 1774.73,-116.8 1774.73,-116.8 296.74,-116.8 296.74,-116.8 296.74,-116.8 296.74,-117.59 296.74,-117.59"/>
<polygon fill="black" stroke="black" points="293.24,-114.74 296.74,-124.74 300.24,-114.74 293.24,-114.74"/>
</g>
<!-- IconsProviderModule -->
<g id="node13" class="node">
<title>IconsProviderModule</title>
<polygon fill="#8dd3c7" stroke="black" points="1688.09,-84.8 1685.09,-88.8 1664.09,-88.8 1661.09,-84.8 1549.91,-84.8 1549.91,-48.8 1688.09,-48.8 1688.09,-84.8"/>
<text text-anchor="middle" x="1619" y="-62.6" font-family="Times,serif" font-size="14.00">IconsProviderModule</text>
</g>
<!-- IconsProviderModule&#45;&gt;CoreModule -->
<g id="edge12" class="edge">
<title>IconsProviderModule&#45;&gt;CoreModule</title>
<path fill="none" stroke="black" d="M1595.45,-84.98C1595.45,-97.84 1595.45,-112.8 1595.45,-112.8 1595.45,-112.8 287.1,-112.8 287.1,-112.8 287.1,-112.8 287.1,-114.66 287.1,-114.66"/>
<polygon fill="black" stroke="black" points="283.6,-114.66 287.1,-124.66 290.6,-114.66 283.6,-114.66"/>
</g>
<!-- ConfigService -->
<g id="node16" class="node">
<title>ConfigService</title>
<ellipse fill="#fdb462" stroke="black" cx="808" cy="-66.8" rx="66.64" ry="18"/>
<text text-anchor="middle" x="808" y="-62.6" font-family="Times,serif" font-size="14.00">ConfigService</text>
</g>
<!-- ConfigService&#45;&gt;CoreModule -->
<g id="edge16" class="edge">
<title>ConfigService&#45;&gt;CoreModule</title>
<path fill="none" stroke="black" d="M808,-84.86C808,-89.29 808,-92.8 808,-92.8 808,-92.8 258.18,-92.8 258.18,-92.8 258.18,-92.8 258.18,-114.75 258.18,-114.75"/>
<polygon fill="black" stroke="black" points="254.68,-114.75 258.18,-124.75 261.68,-114.75 254.68,-114.75"/>
</g>
<!-- LoadingService -->
<g id="node17" class="node">
<title>LoadingService</title>
<ellipse fill="#fdb462" stroke="black" cx="1138" cy="-66.8" rx="72.35" ry="18"/>
<text text-anchor="middle" x="1138" y="-62.6" font-family="Times,serif" font-size="14.00">LoadingService</text>
</g>
<!-- LoadingService&#45;&gt;CoreModule -->
<g id="edge18" class="edge">
<title>LoadingService&#45;&gt;CoreModule</title>
<path fill="none" stroke="black" d="M1092.63,-81.02C1092.63,-90.34 1092.63,-100.8 1092.63,-100.8 1092.63,-100.8 277.46,-100.8 277.46,-100.8 277.46,-100.8 277.46,-114.74 277.46,-114.74"/>
<polygon fill="black" stroke="black" points="273.96,-114.74 277.46,-124.74 280.96,-114.74 273.96,-114.74"/>
</g>
<!-- MessagesService -->
<g id="node18" class="node">
<title>MessagesService</title>
<ellipse fill="#fdb462" stroke="black" cx="970" cy="-66.8" rx="77.58" ry="18"/>
<text text-anchor="middle" x="970" y="-62.6" font-family="Times,serif" font-size="14.00">MessagesService</text>
</g>
<!-- MessagesService&#45;&gt;CoreModule -->
<g id="edge19" class="edge">
<title>MessagesService&#45;&gt;CoreModule</title>
<path fill="none" stroke="black" d="M908.96,-77.97C908.96,-86.5 908.96,-96.8 908.96,-96.8 908.96,-96.8 267.82,-96.8 267.82,-96.8 267.82,-96.8 267.82,-114.62 267.82,-114.62"/>
<polygon fill="black" stroke="black" points="264.32,-114.62 267.82,-124.62 271.32,-114.62 264.32,-114.62"/>
</g>
<!-- DashboardRoutingModule -->
<g id="node19" class="node">
<title>DashboardRoutingModule</title>
<polygon fill="#8dd3c7" stroke="black" points="2388.82,-84.8 2385.82,-88.8 2364.82,-88.8 2361.82,-84.8 2223.18,-84.8 2223.18,-48.8 2388.82,-48.8 2388.82,-84.8"/>
<text text-anchor="middle" x="2306" y="-62.6" font-family="Times,serif" font-size="14.00">DashboardRoutingModule</text>
</g>
<!-- DashboardModule -->
<g id="node20" class="node">
<title>DashboardModule</title>
<polygon fill="#8dd3c7" stroke="black" points="2366.2,-160.8 2363.2,-164.8 2342.2,-164.8 2339.2,-160.8 2245.8,-160.8 2245.8,-124.8 2366.2,-124.8 2366.2,-160.8"/>
<text text-anchor="middle" x="2306" y="-138.6" font-family="Times,serif" font-size="14.00">DashboardModule</text>
</g>
<!-- DashboardRoutingModule&#45;&gt;DashboardModule -->
<g id="edge20" class="edge">
<title>DashboardRoutingModule&#45;&gt;DashboardModule</title>
<path fill="none" stroke="black" d="M2306,-84.81C2306,-84.81 2306,-114.65 2306,-114.65"/>
<polygon fill="black" stroke="black" points="2302.5,-114.65 2306,-124.65 2309.5,-114.65 2302.5,-114.65"/>
</g>
<!-- FormStatusComponent -->
<g id="node21" class="node">
<title>FormStatusComponent</title>
<polygon fill="#ffffb3" stroke="black" points="1640.9,-160.8 1495.1,-160.8 1495.1,-124.8 1640.9,-124.8 1640.9,-160.8"/>
<text text-anchor="middle" x="1568" y="-138.6" font-family="Times,serif" font-size="14.00">FormStatusComponent</text>
</g>
<!-- FormStatusComponent&#45;&gt;FormStatusModule -->
<g id="edge21" class="edge">
<title>FormStatusComponent&#45;&gt;FormStatusModule</title>
<path fill="none" stroke="black" d="M1558,-161.02C1558,-161.02 1558,-182.53 1558,-182.53"/>
<polygon fill="black" stroke="black" points="1554.5,-182.53 1558,-192.53 1561.5,-182.53 1554.5,-182.53"/>
</g>
<!-- FormStatusComponent  -->
<g id="node23" class="node">
<title>FormStatusComponent </title>
<polygon fill="#fb8072" stroke="black" points="1644.9,-296.8 1495.1,-296.8 1495.1,-260.8 1644.9,-260.8 1644.9,-296.8"/>
<text text-anchor="middle" x="1570" y="-274.6" font-family="Times,serif" font-size="14.00">FormStatusComponent </text>
</g>
<!-- FormStatusModule&#45;&gt;FormStatusComponent  -->
<g id="edge23" class="edge">
<title>FormStatusModule&#45;&gt;FormStatusComponent </title>
<path fill="none" stroke="black" stroke-dasharray="5,2" d="M1558,-229.02C1558,-229.02 1558,-250.53 1558,-250.53"/>
<polygon fill="black" stroke="black" points="1554.5,-250.53 1558,-260.53 1561.5,-250.53 1554.5,-250.53"/>
</g>
<!-- FormStatusModule&#45;&gt;WelcomeModule -->
<g id="edge33" class="edge">
<title>FormStatusModule&#45;&gt;WelcomeModule</title>
<path fill="none" stroke="black" d="M1495.65,-216.8C1487.35,-216.8 1481.64,-216.8 1481.64,-216.8 1481.64,-216.8 1481.64,-278.8 1481.64,-278.8 1481.64,-278.8 1065.78,-278.8 1065.78,-278.8"/>
<polygon fill="black" stroke="black" points="1065.78,-275.3 1055.78,-278.8 1065.78,-282.3 1065.78,-275.3"/>
</g>
<!-- MessagesRoutingModule -->
<g id="node24" class="node">
<title>MessagesRoutingModule</title>
<polygon fill="#8dd3c7" stroke="black" points="2039.6,-84.8 2036.6,-88.8 2015.6,-88.8 2012.6,-84.8 1880.4,-84.8 1880.4,-48.8 2039.6,-48.8 2039.6,-84.8"/>
<text text-anchor="middle" x="1960" y="-62.6" font-family="Times,serif" font-size="14.00">MessagesRoutingModule</text>
</g>
<!-- MessagesRoutingModule&#45;&gt;MessagesModule -->
<g id="edge24" class="edge">
<title>MessagesRoutingModule&#45;&gt;MessagesModule</title>
<path fill="none" stroke="black" d="M1946.56,-85.08C1946.56,-100.75 1946.56,-120.8 1946.56,-120.8 1946.56,-120.8 384.86,-120.8 384.86,-120.8 384.86,-120.8 384.86,-121.18 384.86,-121.18"/>
<polygon fill="black" stroke="black" points="381.36,-114.63 384.86,-124.63 388.36,-114.63 381.36,-114.63"/>
</g>
<!-- QrCodeComponent -->
<g id="node25" class="node">
<title>QrCodeComponent</title>
<polygon fill="#ffffb3" stroke="black" points="2179.66,-160.8 2054.34,-160.8 2054.34,-124.8 2179.66,-124.8 2179.66,-160.8"/>
<text text-anchor="middle" x="2117" y="-138.6" font-family="Times,serif" font-size="14.00">QrCodeComponent</text>
</g>
<!-- QrCodeModule -->
<g id="node26" class="node">
<title>QrCodeModule</title>
<polygon fill="#8dd3c7" stroke="black" points="2168.88,-228.8 2165.88,-232.8 2144.88,-232.8 2141.88,-228.8 2065.12,-228.8 2065.12,-192.8 2168.88,-192.8 2168.88,-228.8"/>
<text text-anchor="middle" x="2117" y="-206.6" font-family="Times,serif" font-size="14.00">QrCodeModule</text>
</g>
<!-- QrCodeComponent&#45;&gt;QrCodeModule -->
<g id="edge25" class="edge">
<title>QrCodeComponent&#45;&gt;QrCodeModule</title>
<path fill="none" stroke="black" d="M2117,-161.02C2117,-161.02 2117,-182.53 2117,-182.53"/>
<polygon fill="black" stroke="black" points="2113.5,-182.53 2117,-192.53 2120.5,-182.53 2113.5,-182.53"/>
</g>
<!-- QrCodeComponent  -->
<g id="node27" class="node">
<title>QrCodeComponent </title>
<polygon fill="#fb8072" stroke="black" points="2182.66,-296.8 2053.34,-296.8 2053.34,-260.8 2182.66,-260.8 2182.66,-296.8"/>
<text text-anchor="middle" x="2118" y="-274.6" font-family="Times,serif" font-size="14.00">QrCodeComponent </text>
</g>
<!-- QrCodeModule&#45;&gt;QrCodeComponent  -->
<g id="edge26" class="edge">
<title>QrCodeModule&#45;&gt;QrCodeComponent </title>
<path fill="none" stroke="black" stroke-dasharray="5,2" d="M2134.31,-229.02C2134.31,-229.02 2134.31,-250.53 2134.31,-250.53"/>
<polygon fill="black" stroke="black" points="2130.81,-250.53 2134.31,-260.53 2137.81,-250.53 2130.81,-250.53"/>
</g>
<!-- QrCodeModule&#45;&gt;WelcomeModule -->
<g id="edge34" class="edge">
<title>QrCodeModule&#45;&gt;WelcomeModule</title>
<path fill="none" stroke="black" d="M2099.69,-228.99C2099.69,-237.08 2099.69,-244.8 2099.69,-244.8 2099.69,-244.8 1017.86,-244.8 1017.86,-244.8 1017.86,-244.8 1017.86,-250.61 1017.86,-250.61"/>
<polygon fill="black" stroke="black" points="1014.36,-250.61 1017.86,-260.61 1021.36,-250.61 1014.36,-250.61"/>
</g>
<!-- PureLoadingComponent -->
<g id="node28" class="node">
<title>PureLoadingComponent</title>
<polygon fill="#ffffb3" stroke="black" points="1454.65,-228.8 1301.35,-228.8 1301.35,-192.8 1454.65,-192.8 1454.65,-228.8"/>
<text text-anchor="middle" x="1378" y="-206.6" font-family="Times,serif" font-size="14.00">PureLoadingComponent</text>
</g>
<!-- PureLoadingComponent&#45;&gt;SharedModule -->
<g id="edge27" class="edge">
<title>PureLoadingComponent&#45;&gt;SharedModule</title>
<path fill="none" stroke="black" d="M1333.46,-192.58C1333.46,-172.43 1333.46,-142.8 1333.46,-142.8 1333.46,-142.8 711.28,-142.8 711.28,-142.8"/>
<polygon fill="black" stroke="black" points="711.28,-139.3 701.28,-142.8 711.28,-146.3 711.28,-139.3"/>
</g>
<!-- ListStudentsComponent -->
<g id="node30" class="node">
<title>ListStudentsComponent</title>
<polygon fill="#ffffb3" stroke="black" points="2012.84,-160.8 1861.16,-160.8 1861.16,-124.8 2012.84,-124.8 2012.84,-160.8"/>
<text text-anchor="middle" x="1937" y="-138.6" font-family="Times,serif" font-size="14.00">ListStudentsComponent</text>
</g>
<!-- ListStudentsComponent&#45;&gt;StudentsModule -->
<g id="edge29" class="edge">
<title>ListStudentsComponent&#45;&gt;StudentsModule</title>
<path fill="none" stroke="black" d="M1937,-161.02C1937,-181.17 1937,-210.8 1937,-210.8 1937,-210.8 1825.24,-210.8 1825.24,-210.8"/>
<polygon fill="black" stroke="black" points="1825.24,-207.3 1815.24,-210.8 1825.24,-214.3 1825.24,-207.3"/>
</g>
<!-- StudentsRoutingModule -->
<g id="node32" class="node">
<title>StudentsRoutingModule</title>
<polygon fill="#8dd3c7" stroke="black" points="1837.4,-160.8 1834.4,-164.8 1813.4,-164.8 1810.4,-160.8 1684.6,-160.8 1684.6,-124.8 1837.4,-124.8 1837.4,-160.8"/>
<text text-anchor="middle" x="1761" y="-138.6" font-family="Times,serif" font-size="14.00">StudentsRoutingModule</text>
</g>
<!-- StudentsRoutingModule&#45;&gt;StudentsModule -->
<g id="edge31" class="edge">
<title>StudentsRoutingModule&#45;&gt;StudentsModule</title>
<path fill="none" stroke="black" d="M1778.96,-161.02C1778.96,-161.02 1778.96,-182.53 1778.96,-182.53"/>
<polygon fill="black" stroke="black" points="1775.46,-182.53 1778.96,-192.53 1782.46,-182.53 1775.46,-182.53"/>
</g>
<!-- WelcomeComponent -->
<g id="node33" class="node">
<title>WelcomeComponent</title>
<polygon fill="#ffffb3" stroke="black" points="1057.47,-228.8 922.53,-228.8 922.53,-192.8 1057.47,-192.8 1057.47,-228.8"/>
<text text-anchor="middle" x="990" y="-206.6" font-family="Times,serif" font-size="14.00">WelcomeComponent</text>
</g>
<!-- WelcomeComponent&#45;&gt;WelcomeModule -->
<g id="edge32" class="edge">
<title>WelcomeComponent&#45;&gt;WelcomeModule</title>
<path fill="none" stroke="black" d="M980.14,-229.02C980.14,-229.02 980.14,-250.53 980.14,-250.53"/>
<polygon fill="black" stroke="black" points="976.64,-250.53 980.14,-260.53 983.64,-250.53 976.64,-250.53"/>
</g>
<!-- WelcomeComponent  -->
<g id="node36" class="node">
<title>WelcomeComponent </title>
<polygon fill="#fb8072" stroke="black" points="1057.47,-364.8 918.53,-364.8 918.53,-328.8 1057.47,-328.8 1057.47,-364.8"/>
<text text-anchor="middle" x="988" y="-342.6" font-family="Times,serif" font-size="14.00">WelcomeComponent </text>
</g>
<!-- WelcomeModule&#45;&gt;WelcomeComponent  -->
<g id="edge37" class="edge">
<title>WelcomeModule&#45;&gt;WelcomeComponent </title>
<path fill="none" stroke="black" stroke-dasharray="5,2" d="M999,-297.02C999,-297.02 999,-318.53 999,-318.53"/>
<polygon fill="black" stroke="black" points="995.5,-318.53 999,-328.53 1002.5,-318.53 995.5,-318.53"/>
</g>
<!-- WelcomeRoutingModule -->
<g id="node35" class="node">
<title>WelcomeRoutingModule</title>
<polygon fill="#8dd3c7" stroke="black" points="899.3,-228.8 896.3,-232.8 875.3,-232.8 872.3,-228.8 740.7,-228.8 740.7,-192.8 899.3,-192.8 899.3,-228.8"/>
<text text-anchor="middle" x="820" y="-206.6" font-family="Times,serif" font-size="14.00">WelcomeRoutingModule</text>
</g>
<!-- WelcomeRoutingModule&#45;&gt;WelcomeModule -->
<g id="edge36" class="edge">
<title>WelcomeRoutingModule&#45;&gt;WelcomeModule</title>
<path fill="none" stroke="black" d="M820,-229.07C820,-247.36 820,-272.8 820,-272.8 820,-272.8 932.36,-272.8 932.36,-272.8"/>
<polygon fill="black" stroke="black" points="932.36,-276.3 942.36,-272.8 932.36,-269.3 932.36,-276.3"/>
</g>
</g>
</svg>
