<?xml version="1.0" encoding="UTF-8" standalone="no"?>
<!DOCTYPE svg PUBLIC "-//W3C//DTD SVG 1.1//EN"
 "http://www.w3.org/Graphics/SVG/1.1/DTD/svg11.dtd">
<!-- Generated by graphviz version 5.0.0 (20220707.1540)
 -->
<!-- Title: dependencies Pages: 1 -->
<svg width="1305pt" height="247pt"
 viewBox="0.00 0.00 1305.00 246.80" xmlns="http://www.w3.org/2000/svg" xmlns:xlink="http://www.w3.org/1999/xlink">
<g id="graph0" class="graph" transform="scale(1 1) rotate(0) translate(4 242.8)">
<title>dependencies</title>
<polygon fill="white" stroke="transparent" points="-4,4 -4,-242.8 1301,-242.8 1301,4 -4,4"/>
<text text-anchor="middle" x="648.5" y="-8.2" font-family="sans-serif" font-size="14.00">dependencies</text>
<g id="clust1" class="cluster">
<title>cluster_AppModule</title>
<polygon fill="none" stroke="black" stroke-dasharray="1,5" points="8,-32.8 8,-230.8 1289,-230.8 1289,-32.8 8,-32.8"/>
</g>
<g id="clust6" class="cluster">
<title>cluster_AppModule_bootstrap</title>
<polygon fill="none" stroke="black" points="653,-170.8 653,-222.8 777,-222.8 777,-170.8 653,-170.8"/>
</g>
<g id="clust4" class="cluster">
<title>cluster_AppModule_imports</title>
<polygon fill="none" stroke="black" points="784,-40.8 784,-92.8 1281,-92.8 1281,-40.8 784,-40.8"/>
</g>
<g id="clust2" class="cluster">
<title>cluster_AppModule_declarations</title>
<polygon fill="none" stroke="black" points="654,-40.8 654,-92.8 776,-92.8 776,-40.8 654,-40.8"/>
</g>
<g id="clust7" class="cluster">
<title>cluster_AppModule_providers</title>
<polygon fill="none" stroke="black" points="16,-40.8 16,-92.8 646,-92.8 646,-40.8 16,-40.8"/>
</g>
<!-- AppComponent -->
<g id="node1" class="node">
<title>AppComponent</title>
<polygon fill="#ffffb3" stroke="black" points="767.94,-84.8 662.06,-84.8 662.06,-48.8 767.94,-48.8 767.94,-84.8"/>
<text text-anchor="middle" x="715" y="-62.6" font-family="Times,serif" font-size="14.00">AppComponent</text>
</g>
<!-- AppModule -->
<g id="node2" class="node">
<title>AppModule</title>
<polygon fill="#8dd3c7" stroke="black" points="756.66,-149.8 753.66,-153.8 732.66,-153.8 729.66,-149.8 673.34,-149.8 673.34,-113.8 756.66,-113.8 756.66,-149.8"/>
<text text-anchor="middle" x="715" y="-127.6" font-family="Times,serif" font-size="14.00">AppModule</text>
</g>
<!-- AppComponent&#45;&gt;AppModule -->
<g id="edge1" class="edge">
<title>AppComponent&#45;&gt;AppModule</title>
<path fill="none" stroke="black" d="M715,-84.91C715,-84.91 715,-103.79 715,-103.79"/>
<polygon fill="black" stroke="black" points="711.5,-103.79 715,-113.79 718.5,-103.79 711.5,-103.79"/>
</g>
<!-- AppComponent  -->
<g id="node7" class="node">
<title>AppComponent </title>
<polygon fill="#80b1d3" stroke="black" points="769.44,-214.8 660.56,-214.8 660.56,-178.8 769.44,-178.8 769.44,-214.8"/>
<text text-anchor="middle" x="715" y="-192.6" font-family="Times,serif" font-size="14.00">AppComponent </text>
</g>
<!-- AppModule&#45;&gt;AppComponent  -->
<g id="edge6" class="edge">
<title>AppModule&#45;&gt;AppComponent </title>
<path fill="none" stroke="black" stroke-dasharray="1,5" d="M715,-149.91C715,-149.91 715,-168.79 715,-168.79"/>
<polygon fill="black" stroke="black" points="711.5,-168.79 715,-178.79 718.5,-168.79 711.5,-168.79"/>
</g>
<!-- AppRoutingModule -->
<g id="node3" class="node">
<title>AppRoutingModule</title>
<polygon fill="#8dd3c7" stroke="black" points="1273.28,-84.8 1270.28,-88.8 1249.28,-88.8 1246.28,-84.8 1144.72,-84.8 1144.72,-48.8 1273.28,-48.8 1273.28,-84.8"/>
<text text-anchor="middle" x="1209" y="-62.6" font-family="Times,serif" font-size="14.00">AppRoutingModule</text>
</g>
<!-- AppRoutingModule&#45;&gt;AppModule -->
<g id="edge2" class="edge">
<title>AppRoutingModule&#45;&gt;AppModule</title>
<path fill="none" stroke="black" d="M1209,-84.81C1209,-107.29 1209,-142.8 1209,-142.8 1209,-142.8 766.69,-142.8 766.69,-142.8"/>
<polygon fill="black" stroke="black" points="766.69,-139.3 756.69,-142.8 766.69,-146.3 766.69,-139.3"/>
</g>
<!-- CoreModule -->
<g id="node4" class="node">
<title>CoreModule</title>
<polygon fill="#8dd3c7" stroke="black" points="1126.27,-84.8 1123.27,-88.8 1102.27,-88.8 1099.27,-84.8 1039.73,-84.8 1039.73,-48.8 1126.27,-48.8 1126.27,-84.8"/>
<text text-anchor="middle" x="1083" y="-62.6" font-family="Times,serif" font-size="14.00">CoreModule</text>
</g>
<!-- CoreModule&#45;&gt;AppModule -->
<g id="edge3" class="edge">
<title>CoreModule&#45;&gt;AppModule</title>
<path fill="none" stroke="black" d="M1083,-84.93C1083,-105.37 1083,-135.8 1083,-135.8 1083,-135.8 766.86,-135.8 766.86,-135.8"/>
<polygon fill="black" stroke="black" points="766.86,-132.3 756.86,-135.8 766.86,-139.3 766.86,-132.3"/>
</g>
<!-- MessagesModule -->
<g id="node5" class="node">
<title>MessagesModule</title>
<polygon fill="#8dd3c7" stroke="black" points="1021.99,-84.8 1018.99,-88.8 997.99,-88.8 994.99,-84.8 908.01,-84.8 908.01,-48.8 1021.99,-48.8 1021.99,-84.8"/>
<text text-anchor="middle" x="965" y="-62.6" font-family="Times,serif" font-size="14.00">MessagesModule</text>
</g>
<!-- MessagesModule&#45;&gt;AppModule -->
<g id="edge4" class="edge">
<title>MessagesModule&#45;&gt;AppModule</title>
<path fill="none" stroke="black" d="M965,-85.07C965,-103.36 965,-128.8 965,-128.8 965,-128.8 766.84,-128.8 766.84,-128.8"/>
<polygon fill="black" stroke="black" points="766.84,-125.3 756.84,-128.8 766.84,-132.3 766.84,-125.3"/>
</g>
<!-- SharedModule -->
<g id="node6" class="node">
<title>SharedModule</title>
<polygon fill="#8dd3c7" stroke="black" points="890.43,-84.8 887.43,-88.8 866.43,-88.8 863.43,-84.8 791.57,-84.8 791.57,-48.8 890.43,-48.8 890.43,-84.8"/>
<text text-anchor="middle" x="841" y="-62.6" font-family="Times,serif" font-size="14.00">SharedModule</text>
</g>
<!-- SharedModule&#45;&gt;AppModule -->
<g id="edge5" class="edge">
<title>SharedModule&#45;&gt;AppModule</title>
<path fill="none" stroke="black" d="M841,-84.81C841,-100.85 841,-121.8 841,-121.8 841,-121.8 766.96,-121.8 766.96,-121.8"/>
<polygon fill="black" stroke="black" points="766.96,-118.3 756.96,-121.8 766.96,-125.3 766.96,-118.3"/>
</g>
<!-- ClockService -->
<g id="node8" class="node">
<title>ClockService</title>
<ellipse fill="#fdb462" stroke="black" cx="575" cy="-66.8" rx="63.12" ry="18"/>
<text text-anchor="middle" x="575" y="-62.6" font-family="Times,serif" font-size="14.00">ClockService</text>
</g>
<!-- ClockService&#45;&gt;AppModule -->
<g id="edge7" class="edge">
<title>ClockService&#45;&gt;AppModule</title>
<path fill="none" stroke="black" d="M575,-84.81C575,-100.85 575,-121.8 575,-121.8 575,-121.8 663,-121.8 663,-121.8"/>
<polygon fill="black" stroke="black" points="663,-125.3 673,-121.8 663,-118.3 663,-125.3"/>
</g>
<!-- ClonerService -->
<g id="node9" class="node">
<title>ClonerService</title>
<ellipse fill="#fdb462" stroke="black" cx="428" cy="-66.8" rx="66.05" ry="18"/>
<text text-anchor="middle" x="428" y="-62.6" font-family="Times,serif" font-size="14.00">ClonerService</text>
</g>
<!-- ClonerService&#45;&gt;AppModule -->
<g id="edge8" class="edge">
<title>ClonerService&#45;&gt;AppModule</title>
<path fill="none" stroke="black" d="M428,-85.07C428,-103.36 428,-128.8 428,-128.8 428,-128.8 663.27,-128.8 663.27,-128.8"/>
<polygon fill="black" stroke="black" points="663.27,-132.3 673.27,-128.8 663.27,-125.3 663.27,-132.3"/>
</g>
<!-- EventBusService -->
<g id="node10" class="node">
<title>EventBusService</title>
<ellipse fill="#fdb462" stroke="black" cx="266" cy="-66.8" rx="77.59" ry="18"/>
<text text-anchor="middle" x="266" y="-62.6" font-family="Times,serif" font-size="14.00">EventBusService</text>
</g>
<!-- EventBusService&#45;&gt;AppModule -->
<g id="edge9" class="edge">
<title>EventBusService&#45;&gt;AppModule</title>
<path fill="none" stroke="black" d="M266,-84.93C266,-105.37 266,-135.8 266,-135.8 266,-135.8 663.16,-135.8 663.16,-135.8"/>
<polygon fill="black" stroke="black" points="663.16,-139.3 673.16,-135.8 663.16,-132.3 663.16,-139.3"/>
</g>
<!-- StudentsService -->
<g id="node11" class="node">
<title>StudentsService</title>
<ellipse fill="#fdb462" stroke="black" cx="97" cy="-66.8" rx="73.02" ry="18"/>
<text text-anchor="middle" x="97" y="-62.6" font-family="Times,serif" font-size="14.00">StudentsService</text>
</g>
<!-- StudentsService&#45;&gt;AppModule -->
<g id="edge10" class="edge">
<title>StudentsService&#45;&gt;AppModule</title>
<path fill="none" stroke="black" d="M97,-84.81C97,-107.29 97,-142.8 97,-142.8 97,-142.8 663.01,-142.8 663.01,-142.8"/>
<polygon fill="black" stroke="black" points="663.01,-146.3 673.01,-142.8 663.01,-139.3 663.01,-146.3"/>
</g>
</g>
</svg>
