<?xml version="1.0" encoding="UTF-8" standalone="no"?>
<!DOCTYPE svg PUBLIC "-//W3C//DTD SVG 1.1//EN"
 "http://www.w3.org/Graphics/SVG/1.1/DTD/svg11.dtd">
<!-- Generated by graphviz version 5.0.0 (20220707.1540)
 -->
<!-- Title: dependencies Pages: 1 -->
<svg width="1305pt" height="247pt"
 viewBox="0.00 0.00 1305.00 246.80" xmlns="http://www.w3.org/2000/svg" xmlns:xlink="http://www.w3.org/1999/xlink">
<g id="graph0" class="graph" transform="scale(1 1) rotate(0) translate(4 242.8)">
<title>dependencies</title>
<polygon fill="white" stroke="transparent" points="-4,4 -4,-242.8 1301,-242.8 1301,4 -4,4"/>
<text text-anchor="middle" x="648.5" y="-8.2" font-family="sans-serif" font-size="14.00">dependencies</text>
<g id="clust1" class="cluster">
<title>cluster_AppModule</title>
<polygon fill="none" stroke="black" stroke-dasharray="1,5" points="8,-32.8 8,-230.8 1289,-230.8 1289,-32.8 8,-32.8"/>
</g>
<g id="clust6" class="cluster">
<title>cluster_AppModule_bootstrap</title>
<polygon fill="none" stroke="black" points="520,-170.8 520,-222.8 644,-222.8 644,-170.8 520,-170.8"/>
</g>
<g id="clust7" class="cluster">
<title>cluster_AppModule_providers</title>
<polygon fill="none" stroke="black" points="651,-40.8 651,-92.8 1281,-92.8 1281,-40.8 651,-40.8"/>
</g>
<g id="clust2" class="cluster">
<title>cluster_AppModule_declarations</title>
<polygon fill="none" stroke="black" points="521,-40.8 521,-92.8 643,-92.8 643,-40.8 521,-40.8"/>
</g>
<g id="clust4" class="cluster">
<title>cluster_AppModule_imports</title>
<polygon fill="none" stroke="black" points="16,-40.8 16,-92.8 513,-92.8 513,-40.8 16,-40.8"/>
</g>
<!-- AppComponent -->
<g id="node1" class="node">
<title>AppComponent</title>
<polygon fill="#ffffb3" stroke="black" points="634.94,-84.8 529.06,-84.8 529.06,-48.8 634.94,-48.8 634.94,-84.8"/>
<text text-anchor="middle" x="582" y="-62.6" font-family="Times,serif" font-size="14.00">AppComponent</text>
</g>
<!-- AppModule -->
<g id="node2" class="node">
<title>AppModule</title>
<polygon fill="#8dd3c7" stroke="black" points="623.66,-149.8 620.66,-153.8 599.66,-153.8 596.66,-149.8 540.34,-149.8 540.34,-113.8 623.66,-113.8 623.66,-149.8"/>
<text text-anchor="middle" x="582" y="-127.6" font-family="Times,serif" font-size="14.00">AppModule</text>
</g>
<!-- AppComponent&#45;&gt;AppModule -->
<g id="edge1" class="edge">
<title>AppComponent&#45;&gt;AppModule</title>
<path fill="none" stroke="black" d="M582,-84.91C582,-84.91 582,-103.79 582,-103.79"/>
<polygon fill="black" stroke="black" points="578.5,-103.79 582,-113.79 585.5,-103.79 578.5,-103.79"/>
</g>
<!-- AppComponent  -->
<g id="node7" class="node">
<title>AppComponent </title>
<polygon fill="#80b1d3" stroke="black" points="636.44,-214.8 527.56,-214.8 527.56,-178.8 636.44,-178.8 636.44,-214.8"/>
<text text-anchor="middle" x="582" y="-192.6" font-family="Times,serif" font-size="14.00">AppComponent </text>
</g>
<!-- AppModule&#45;&gt;AppComponent  -->
<g id="edge6" class="edge">
<title>AppModule&#45;&gt;AppComponent </title>
<path fill="none" stroke="black" stroke-dasharray="1,5" d="M582,-149.91C582,-149.91 582,-168.79 582,-168.79"/>
<polygon fill="black" stroke="black" points="578.5,-168.79 582,-178.79 585.5,-168.79 578.5,-168.79"/>
</g>
<!-- AppRoutingModule -->
<g id="node3" class="node">
<title>AppRoutingModule</title>
<polygon fill="#8dd3c7" stroke="black" points="505.28,-84.8 502.28,-88.8 481.28,-88.8 478.28,-84.8 376.72,-84.8 376.72,-48.8 505.28,-48.8 505.28,-84.8"/>
<text text-anchor="middle" x="441" y="-62.6" font-family="Times,serif" font-size="14.00">AppRoutingModule</text>
</g>
<!-- AppRoutingModule&#45;&gt;AppModule -->
<g id="edge2" class="edge">
<title>AppRoutingModule&#45;&gt;AppModule</title>
<path fill="none" stroke="black" d="M441,-84.81C441,-100.85 441,-121.8 441,-121.8 441,-121.8 530.08,-121.8 530.08,-121.8"/>
<polygon fill="black" stroke="black" points="530.08,-125.3 540.08,-121.8 530.08,-118.3 530.08,-125.3"/>
</g>
<!-- CoreModule -->
<g id="node4" class="node">
<title>CoreModule</title>
<polygon fill="#8dd3c7" stroke="black" points="358.27,-84.8 355.27,-88.8 334.27,-88.8 331.27,-84.8 271.73,-84.8 271.73,-48.8 358.27,-48.8 358.27,-84.8"/>
<text text-anchor="middle" x="315" y="-62.6" font-family="Times,serif" font-size="14.00">CoreModule</text>
</g>
<!-- CoreModule&#45;&gt;AppModule -->
<g id="edge3" class="edge">
<title>CoreModule&#45;&gt;AppModule</title>
<path fill="none" stroke="black" d="M315,-85.07C315,-103.36 315,-128.8 315,-128.8 315,-128.8 530.28,-128.8 530.28,-128.8"/>
<polygon fill="black" stroke="black" points="530.28,-132.3 540.28,-128.8 530.28,-125.3 530.28,-132.3"/>
</g>
<!-- MessagesModule -->
<g id="node5" class="node">
<title>MessagesModule</title>
<polygon fill="#8dd3c7" stroke="black" points="253.99,-84.8 250.99,-88.8 229.99,-88.8 226.99,-84.8 140.01,-84.8 140.01,-48.8 253.99,-48.8 253.99,-84.8"/>
<text text-anchor="middle" x="197" y="-62.6" font-family="Times,serif" font-size="14.00">MessagesModule</text>
</g>
<!-- MessagesModule&#45;&gt;AppModule -->
<g id="edge4" class="edge">
<title>MessagesModule&#45;&gt;AppModule</title>
<path fill="none" stroke="black" d="M197,-84.93C197,-105.37 197,-135.8 197,-135.8 197,-135.8 530.07,-135.8 530.07,-135.8"/>
<polygon fill="black" stroke="black" points="530.07,-139.3 540.07,-135.8 530.07,-132.3 530.07,-139.3"/>
</g>
<!-- SharedModule -->
<g id="node6" class="node">
<title>SharedModule</title>
<polygon fill="#8dd3c7" stroke="black" points="122.43,-84.8 119.43,-88.8 98.43,-88.8 95.43,-84.8 23.57,-84.8 23.57,-48.8 122.43,-48.8 122.43,-84.8"/>
<text text-anchor="middle" x="73" y="-62.6" font-family="Times,serif" font-size="14.00">SharedModule</text>
</g>
<!-- SharedModule&#45;&gt;AppModule -->
<g id="edge5" class="edge">
<title>SharedModule&#45;&gt;AppModule</title>
<path fill="none" stroke="black" d="M73,-84.81C73,-107.29 73,-142.8 73,-142.8 73,-142.8 529.91,-142.8 529.91,-142.8"/>
<polygon fill="black" stroke="black" points="529.91,-146.3 539.91,-142.8 529.91,-139.3 529.91,-146.3"/>
</g>
<!-- ClockService -->
<g id="node8" class="node">
<title>ClockService</title>
<ellipse fill="#fdb462" stroke="black" cx="1210" cy="-66.8" rx="63.12" ry="18"/>
<text text-anchor="middle" x="1210" y="-62.6" font-family="Times,serif" font-size="14.00">ClockService</text>
</g>
<!-- ClockService&#45;&gt;AppModule -->
<g id="edge7" class="edge">
<title>ClockService&#45;&gt;AppModule</title>
<path fill="none" stroke="black" d="M1210,-84.81C1210,-107.29 1210,-142.8 1210,-142.8 1210,-142.8 633.69,-142.8 633.69,-142.8"/>
<polygon fill="black" stroke="black" points="633.69,-139.3 623.69,-142.8 633.69,-146.3 633.69,-139.3"/>
</g>
<!-- ClonerService -->
<g id="node9" class="node">
<title>ClonerService</title>
<ellipse fill="#fdb462" stroke="black" cx="1063" cy="-66.8" rx="66.05" ry="18"/>
<text text-anchor="middle" x="1063" y="-62.6" font-family="Times,serif" font-size="14.00">ClonerService</text>
</g>
<!-- ClonerService&#45;&gt;AppModule -->
<g id="edge8" class="edge">
<title>ClonerService&#45;&gt;AppModule</title>
<path fill="none" stroke="black" d="M1063,-84.93C1063,-105.37 1063,-135.8 1063,-135.8 1063,-135.8 633.84,-135.8 633.84,-135.8"/>
<polygon fill="black" stroke="black" points="633.84,-132.3 623.84,-135.8 633.84,-139.3 633.84,-132.3"/>
</g>
<!-- EventBusService -->
<g id="node10" class="node">
<title>EventBusService</title>
<ellipse fill="#fdb462" stroke="black" cx="901" cy="-66.8" rx="77.59" ry="18"/>
<text text-anchor="middle" x="901" y="-62.6" font-family="Times,serif" font-size="14.00">EventBusService</text>
</g>
<!-- EventBusService&#45;&gt;AppModule -->
<g id="edge9" class="edge">
<title>EventBusService&#45;&gt;AppModule</title>
<path fill="none" stroke="black" d="M901,-85.07C901,-103.36 901,-128.8 901,-128.8 901,-128.8 633.7,-128.8 633.7,-128.8"/>
<polygon fill="black" stroke="black" points="633.7,-125.3 623.7,-128.8 633.7,-132.3 633.7,-125.3"/>
</g>
<!-- StudentsService -->
<g id="node11" class="node">
<title>StudentsService</title>
<ellipse fill="#fdb462" stroke="black" cx="732" cy="-66.8" rx="73.02" ry="18"/>
<text text-anchor="middle" x="732" y="-62.6" font-family="Times,serif" font-size="14.00">StudentsService</text>
</g>
<!-- StudentsService&#45;&gt;AppModule -->
<g id="edge10" class="edge">
<title>StudentsService&#45;&gt;AppModule</title>
<path fill="none" stroke="black" d="M732,-84.81C732,-100.85 732,-121.8 732,-121.8 732,-121.8 633.78,-121.8 633.78,-121.8"/>
<polygon fill="black" stroke="black" points="633.78,-118.3 623.78,-121.8 633.78,-125.3 633.78,-118.3"/>
</g>
</g>
</svg>
