<?xml version="1.0" encoding="UTF-8" standalone="no"?>
<!DOCTYPE svg PUBLIC "-//W3C//DTD SVG 1.1//EN"
 "http://www.w3.org/Graphics/SVG/1.1/DTD/svg11.dtd">
<!-- Generated by graphviz version 5.0.0 (20220707.1540)
 -->
<!-- Title: dependencies Pages: 1 -->
<svg width="1163pt" height="247pt"
 viewBox="0.00 0.00 1163.00 246.80" xmlns="http://www.w3.org/2000/svg" xmlns:xlink="http://www.w3.org/1999/xlink">
<g id="graph0" class="graph" transform="scale(1 1) rotate(0) translate(4 242.8)">
<title>dependencies</title>
<polygon fill="white" stroke="transparent" points="-4,4 -4,-242.8 1159,-242.8 1159,4 -4,4"/>
<text text-anchor="middle" x="577.5" y="-8.2" font-family="sans-serif" font-size="14.00">dependencies</text>
<g id="clust1" class="cluster">
<title>cluster_CoreModule</title>
<polygon fill="none" stroke="black" stroke-dasharray="1,5" points="8,-32.8 8,-230.8 1147,-230.8 1147,-32.8 8,-32.8"/>
</g>
<g id="clust4" class="cluster">
<title>cluster_CoreModule_imports</title>
<polygon fill="none" stroke="black" points="985,-40.8 985,-92.8 1139,-92.8 1139,-40.8 985,-40.8"/>
</g>
<g id="clust5" class="cluster">
<title>cluster_CoreModule_exports</title>
<polygon fill="none" stroke="black" points="439,-170.8 439,-222.8 747,-222.8 747,-170.8 439,-170.8"/>
</g>
<g id="clust7" class="cluster">
<title>cluster_CoreModule_providers</title>
<polygon fill="none" stroke="black" points="168,-40.8 168,-92.8 977,-92.8 977,-40.8 168,-40.8"/>
</g>
<g id="clust2" class="cluster">
<title>cluster_CoreModule_declarations</title>
<polygon fill="none" stroke="black" points="16,-40.8 16,-92.8 160,-92.8 160,-40.8 16,-40.8"/>
</g>
<!-- LoadingComponent -->
<g id="node1" class="node">
<title>LoadingComponent</title>
<polygon fill="#ffffb3" stroke="black" points="151.99,-84.8 24.01,-84.8 24.01,-48.8 151.99,-48.8 151.99,-84.8"/>
<text text-anchor="middle" x="88" y="-62.6" font-family="Times,serif" font-size="14.00">LoadingComponent</text>
</g>
<!-- CoreModule -->
<g id="node2" class="node">
<title>CoreModule</title>
<polygon fill="#8dd3c7" stroke="black" points="633.27,-149.8 630.27,-153.8 609.27,-153.8 606.27,-149.8 546.73,-149.8 546.73,-113.8 633.27,-113.8 633.27,-149.8"/>
<text text-anchor="middle" x="590" y="-127.6" font-family="Times,serif" font-size="14.00">CoreModule</text>
</g>
<!-- LoadingComponent&#45;&gt;CoreModule -->
<g id="edge1" class="edge">
<title>LoadingComponent&#45;&gt;CoreModule</title>
<path fill="none" stroke="black" d="M88,-85.09C88,-107.01 88,-140.8 88,-140.8 88,-140.8 536.33,-140.8 536.33,-140.8"/>
<polygon fill="black" stroke="black" points="536.33,-144.3 546.33,-140.8 536.33,-137.3 536.33,-144.3"/>
</g>
<!-- IconsProviderModule  -->
<g id="node4" class="node">
<title>IconsProviderModule </title>
<polygon fill="#fb8072" stroke="black" points="738.59,-214.8 597.41,-214.8 597.41,-178.8 738.59,-178.8 738.59,-214.8"/>
<text text-anchor="middle" x="668" y="-192.6" font-family="Times,serif" font-size="14.00">IconsProviderModule </text>
</g>
<!-- CoreModule&#45;&gt;IconsProviderModule  -->
<g id="edge3" class="edge">
<title>CoreModule&#45;&gt;IconsProviderModule </title>
<path fill="none" stroke="black" stroke-dasharray="5,2" d="M615.29,-149.91C615.29,-149.91 615.29,-168.79 615.29,-168.79"/>
<polygon fill="black" stroke="black" points="611.79,-168.79 615.29,-178.79 618.79,-168.79 611.79,-168.79"/>
</g>
<!-- LoadingComponent  -->
<g id="node5" class="node">
<title>LoadingComponent </title>
<polygon fill="#fb8072" stroke="black" points="578.99,-214.8 447.01,-214.8 447.01,-178.8 578.99,-178.8 578.99,-214.8"/>
<text text-anchor="middle" x="513" y="-192.6" font-family="Times,serif" font-size="14.00">LoadingComponent </text>
</g>
<!-- CoreModule&#45;&gt;LoadingComponent  -->
<g id="edge4" class="edge">
<title>CoreModule&#45;&gt;LoadingComponent </title>
<path fill="none" stroke="black" stroke-dasharray="5,2" d="M562.68,-149.91C562.68,-149.91 562.68,-168.79 562.68,-168.79"/>
<polygon fill="black" stroke="black" points="559.18,-168.79 562.68,-178.79 566.18,-168.79 559.18,-168.79"/>
</g>
<!-- IconsProviderModule -->
<g id="node3" class="node">
<title>IconsProviderModule</title>
<polygon fill="#8dd3c7" stroke="black" points="1131.09,-84.8 1128.09,-88.8 1107.09,-88.8 1104.09,-84.8 992.91,-84.8 992.91,-48.8 1131.09,-48.8 1131.09,-84.8"/>
<text text-anchor="middle" x="1062" y="-62.6" font-family="Times,serif" font-size="14.00">IconsProviderModule</text>
</g>
<!-- IconsProviderModule&#45;&gt;CoreModule -->
<g id="edge2" class="edge">
<title>IconsProviderModule&#45;&gt;CoreModule</title>
<path fill="none" stroke="black" d="M1062,-85.09C1062,-107.01 1062,-140.8 1062,-140.8 1062,-140.8 643.56,-140.8 643.56,-140.8"/>
<polygon fill="black" stroke="black" points="643.56,-137.3 633.56,-140.8 643.56,-144.3 643.56,-137.3"/>
</g>
<!-- ClonerService -->
<g id="node6" class="node">
<title>ClonerService</title>
<ellipse fill="#fdb462" stroke="black" cx="903" cy="-66.8" rx="66.05" ry="18"/>
<text text-anchor="middle" x="903" y="-62.6" font-family="Times,serif" font-size="14.00">ClonerService</text>
</g>
<!-- ClonerService&#45;&gt;CoreModule -->
<g id="edge5" class="edge">
<title>ClonerService&#45;&gt;CoreModule</title>
<path fill="none" stroke="black" d="M903,-84.91C903,-104.14 903,-131.8 903,-131.8 903,-131.8 643.52,-131.8 643.52,-131.8"/>
<polygon fill="black" stroke="black" points="643.52,-128.3 633.52,-131.8 643.52,-135.3 643.52,-128.3"/>
</g>
<!-- ConfigService -->
<g id="node7" class="node">
<title>ConfigService</title>
<ellipse fill="#fdb462" stroke="black" cx="752" cy="-66.8" rx="66.64" ry="18"/>
<text text-anchor="middle" x="752" y="-62.6" font-family="Times,serif" font-size="14.00">ConfigService</text>
</g>
<!-- ConfigService&#45;&gt;CoreModule -->
<g id="edge6" class="edge">
<title>ConfigService&#45;&gt;CoreModule</title>
<path fill="none" stroke="black" d="M711.99,-81.22C711.99,-97.81 711.99,-122.8 711.99,-122.8 711.99,-122.8 643.35,-122.8 643.35,-122.8"/>
<polygon fill="black" stroke="black" points="643.35,-119.3 633.35,-122.8 643.35,-126.3 643.35,-119.3"/>
</g>
<!-- EventBusService -->
<g id="node8" class="node">
<title>EventBusService</title>
<ellipse fill="#fdb462" stroke="black" cx="590" cy="-66.8" rx="77.59" ry="18"/>
<text text-anchor="middle" x="590" y="-62.6" font-family="Times,serif" font-size="14.00">EventBusService</text>
</g>
<!-- EventBusService&#45;&gt;CoreModule -->
<g id="edge7" class="edge">
<title>EventBusService&#45;&gt;CoreModule</title>
<path fill="none" stroke="black" d="M590,-84.91C590,-84.91 590,-103.79 590,-103.79"/>
<polygon fill="black" stroke="black" points="586.5,-103.79 590,-113.79 593.5,-103.79 586.5,-103.79"/>
</g>
<!-- LoadingService -->
<g id="node9" class="node">
<title>LoadingService</title>
<ellipse fill="#fdb462" stroke="black" cx="422" cy="-66.8" rx="72.35" ry="18"/>
<text text-anchor="middle" x="422" y="-62.6" font-family="Times,serif" font-size="14.00">LoadingService</text>
</g>
<!-- LoadingService&#45;&gt;CoreModule -->
<g id="edge8" class="edge">
<title>LoadingService&#45;&gt;CoreModule</title>
<path fill="none" stroke="black" d="M470.72,-80.36C470.72,-96.93 470.72,-122.8 470.72,-122.8 470.72,-122.8 536.6,-122.8 536.6,-122.8"/>
<polygon fill="black" stroke="black" points="536.6,-126.3 546.6,-122.8 536.6,-119.3 536.6,-126.3"/>
</g>
<!-- MessagesService -->
<g id="node10" class="node">
<title>MessagesService</title>
<ellipse fill="#fdb462" stroke="black" cx="254" cy="-66.8" rx="77.58" ry="18"/>
<text text-anchor="middle" x="254" y="-62.6" font-family="Times,serif" font-size="14.00">MessagesService</text>
</g>
<!-- MessagesService&#45;&gt;CoreModule -->
<g id="edge9" class="edge">
<title>MessagesService&#45;&gt;CoreModule</title>
<path fill="none" stroke="black" d="M254,-84.91C254,-104.14 254,-131.8 254,-131.8 254,-131.8 536.42,-131.8 536.42,-131.8"/>
<polygon fill="black" stroke="black" points="536.42,-135.3 546.42,-131.8 536.42,-128.3 536.42,-135.3"/>
</g>
</g>
</svg>
