<?xml version="1.0" encoding="UTF-8" standalone="no"?>
<!DOCTYPE svg PUBLIC "-//W3C//DTD SVG 1.1//EN"
 "http://www.w3.org/Graphics/SVG/1.1/DTD/svg11.dtd">
<!-- Generated by graphviz version 5.0.0 (20220707.1540)
 -->
<!-- Title: dependencies Pages: 1 -->
<svg width="1163pt" height="247pt"
 viewBox="0.00 0.00 1163.00 246.80" xmlns="http://www.w3.org/2000/svg" xmlns:xlink="http://www.w3.org/1999/xlink">
<g id="graph0" class="graph" transform="scale(1 1) rotate(0) translate(4 242.8)">
<title>dependencies</title>
<polygon fill="white" stroke="transparent" points="-4,4 -4,-242.8 1159,-242.8 1159,4 -4,4"/>
<text text-anchor="middle" x="577.5" y="-8.2" font-family="sans-serif" font-size="14.00">dependencies</text>
<g id="clust1" class="cluster">
<title>cluster_CoreModule</title>
<polygon fill="none" stroke="black" stroke-dasharray="1,5" points="8,-32.8 8,-230.8 1147,-230.8 1147,-32.8 8,-32.8"/>
</g>
<g id="clust2" class="cluster">
<title>cluster_CoreModule_declarations</title>
<polygon fill="none" stroke="black" points="995,-40.8 995,-92.8 1139,-92.8 1139,-40.8 995,-40.8"/>
</g>
<g id="clust4" class="cluster">
<title>cluster_CoreModule_imports</title>
<polygon fill="none" stroke="black" points="833,-40.8 833,-92.8 987,-92.8 987,-40.8 833,-40.8"/>
</g>
<g id="clust5" class="cluster">
<title>cluster_CoreModule_exports</title>
<polygon fill="none" stroke="black" points="449,-170.8 449,-222.8 757,-222.8 757,-170.8 449,-170.8"/>
</g>
<g id="clust7" class="cluster">
<title>cluster_CoreModule_providers</title>
<polygon fill="none" stroke="black" points="16,-40.8 16,-92.8 825,-92.8 825,-40.8 16,-40.8"/>
</g>
<!-- LoadingComponent -->
<g id="node1" class="node">
<title>LoadingComponent</title>
<polygon fill="#ffffb3" stroke="black" points="1130.99,-84.8 1003.01,-84.8 1003.01,-48.8 1130.99,-48.8 1130.99,-84.8"/>
<text text-anchor="middle" x="1067" y="-62.6" font-family="Times,serif" font-size="14.00">LoadingComponent</text>
</g>
<!-- CoreModule -->
<g id="node2" class="node">
<title>CoreModule</title>
<polygon fill="#8dd3c7" stroke="black" points="643.27,-149.8 640.27,-153.8 619.27,-153.8 616.27,-149.8 556.73,-149.8 556.73,-113.8 643.27,-113.8 643.27,-149.8"/>
<text text-anchor="middle" x="600" y="-127.6" font-family="Times,serif" font-size="14.00">CoreModule</text>
</g>
<!-- LoadingComponent&#45;&gt;CoreModule -->
<g id="edge1" class="edge">
<title>LoadingComponent&#45;&gt;CoreModule</title>
<path fill="none" stroke="black" d="M1067,-85.09C1067,-107.01 1067,-140.8 1067,-140.8 1067,-140.8 653.51,-140.8 653.51,-140.8"/>
<polygon fill="black" stroke="black" points="653.51,-137.3 643.51,-140.8 653.51,-144.3 653.51,-137.3"/>
</g>
<!-- IconsProviderModule  -->
<g id="node4" class="node">
<title>IconsProviderModule </title>
<polygon fill="#fb8072" stroke="black" points="748.59,-214.8 607.41,-214.8 607.41,-178.8 748.59,-178.8 748.59,-214.8"/>
<text text-anchor="middle" x="678" y="-192.6" font-family="Times,serif" font-size="14.00">IconsProviderModule </text>
</g>
<!-- CoreModule&#45;&gt;IconsProviderModule  -->
<g id="edge3" class="edge">
<title>CoreModule&#45;&gt;IconsProviderModule </title>
<path fill="none" stroke="black" stroke-dasharray="5,2" d="M625.29,-149.91C625.29,-149.91 625.29,-168.79 625.29,-168.79"/>
<polygon fill="black" stroke="black" points="621.79,-168.79 625.29,-178.79 628.79,-168.79 621.79,-168.79"/>
</g>
<!-- LoadingComponent  -->
<g id="node5" class="node">
<title>LoadingComponent </title>
<polygon fill="#fb8072" stroke="black" points="588.99,-214.8 457.01,-214.8 457.01,-178.8 588.99,-178.8 588.99,-214.8"/>
<text text-anchor="middle" x="523" y="-192.6" font-family="Times,serif" font-size="14.00">LoadingComponent </text>
</g>
<!-- CoreModule&#45;&gt;LoadingComponent  -->
<g id="edge4" class="edge">
<title>CoreModule&#45;&gt;LoadingComponent </title>
<path fill="none" stroke="black" stroke-dasharray="5,2" d="M572.68,-149.91C572.68,-149.91 572.68,-168.79 572.68,-168.79"/>
<polygon fill="black" stroke="black" points="569.18,-168.79 572.68,-178.79 576.18,-168.79 569.18,-168.79"/>
</g>
<!-- IconsProviderModule -->
<g id="node3" class="node">
<title>IconsProviderModule</title>
<polygon fill="#8dd3c7" stroke="black" points="979.09,-84.8 976.09,-88.8 955.09,-88.8 952.09,-84.8 840.91,-84.8 840.91,-48.8 979.09,-48.8 979.09,-84.8"/>
<text text-anchor="middle" x="910" y="-62.6" font-family="Times,serif" font-size="14.00">IconsProviderModule</text>
</g>
<!-- IconsProviderModule&#45;&gt;CoreModule -->
<g id="edge2" class="edge">
<title>IconsProviderModule&#45;&gt;CoreModule</title>
<path fill="none" stroke="black" d="M910,-84.91C910,-104.14 910,-131.8 910,-131.8 910,-131.8 653.43,-131.8 653.43,-131.8"/>
<polygon fill="black" stroke="black" points="653.43,-128.3 643.43,-131.8 653.43,-135.3 653.43,-128.3"/>
</g>
<!-- ClonerService -->
<g id="node6" class="node">
<title>ClonerService</title>
<ellipse fill="#fdb462" stroke="black" cx="751" cy="-66.8" rx="66.05" ry="18"/>
<text text-anchor="middle" x="751" y="-62.6" font-family="Times,serif" font-size="14.00">ClonerService</text>
</g>
<!-- ClonerService&#45;&gt;CoreModule -->
<g id="edge5" class="edge">
<title>ClonerService&#45;&gt;CoreModule</title>
<path fill="none" stroke="black" d="M716.76,-82.4C716.76,-98.97 716.76,-122.8 716.76,-122.8 716.76,-122.8 653.48,-122.8 653.48,-122.8"/>
<polygon fill="black" stroke="black" points="653.48,-119.3 643.48,-122.8 653.48,-126.3 653.48,-119.3"/>
</g>
<!-- ConfigService -->
<g id="node7" class="node">
<title>ConfigService</title>
<ellipse fill="#fdb462" stroke="black" cx="600" cy="-66.8" rx="66.64" ry="18"/>
<text text-anchor="middle" x="600" y="-62.6" font-family="Times,serif" font-size="14.00">ConfigService</text>
</g>
<!-- ConfigService&#45;&gt;CoreModule -->
<g id="edge6" class="edge">
<title>ConfigService&#45;&gt;CoreModule</title>
<path fill="none" stroke="black" d="M600,-84.91C600,-84.91 600,-103.79 600,-103.79"/>
<polygon fill="black" stroke="black" points="596.5,-103.79 600,-113.79 603.5,-103.79 596.5,-103.79"/>
</g>
<!-- EventBusService -->
<g id="node8" class="node">
<title>EventBusService</title>
<ellipse fill="#fdb462" stroke="black" cx="438" cy="-66.8" rx="77.59" ry="18"/>
<text text-anchor="middle" x="438" y="-62.6" font-family="Times,serif" font-size="14.00">EventBusService</text>
</g>
<!-- EventBusService&#45;&gt;CoreModule -->
<g id="edge7" class="edge">
<title>EventBusService&#45;&gt;CoreModule</title>
<path fill="none" stroke="black" d="M486.4,-80.93C486.4,-97.52 486.4,-122.8 486.4,-122.8 486.4,-122.8 546.73,-122.8 546.73,-122.8"/>
<polygon fill="black" stroke="black" points="546.73,-126.3 556.73,-122.8 546.73,-119.3 546.73,-126.3"/>
</g>
<!-- LoadingService -->
<g id="node9" class="node">
<title>LoadingService</title>
<ellipse fill="#fdb462" stroke="black" cx="270" cy="-66.8" rx="72.35" ry="18"/>
<text text-anchor="middle" x="270" y="-62.6" font-family="Times,serif" font-size="14.00">LoadingService</text>
</g>
<!-- LoadingService&#45;&gt;CoreModule -->
<g id="edge8" class="edge">
<title>LoadingService&#45;&gt;CoreModule</title>
<path fill="none" stroke="black" d="M270,-84.91C270,-104.14 270,-131.8 270,-131.8 270,-131.8 546.52,-131.8 546.52,-131.8"/>
<polygon fill="black" stroke="black" points="546.52,-135.3 556.52,-131.8 546.52,-128.3 546.52,-135.3"/>
</g>
<!-- MessagesService -->
<g id="node10" class="node">
<title>MessagesService</title>
<ellipse fill="#fdb462" stroke="black" cx="102" cy="-66.8" rx="77.58" ry="18"/>
<text text-anchor="middle" x="102" y="-62.6" font-family="Times,serif" font-size="14.00">MessagesService</text>
</g>
<!-- MessagesService&#45;&gt;CoreModule -->
<g id="edge9" class="edge">
<title>MessagesService&#45;&gt;CoreModule</title>
<path fill="none" stroke="black" d="M102,-85.09C102,-107.01 102,-140.8 102,-140.8 102,-140.8 546.68,-140.8 546.68,-140.8"/>
<polygon fill="black" stroke="black" points="546.68,-144.3 556.68,-140.8 546.68,-137.3 546.68,-144.3"/>
</g>
</g>
</svg>
